<svg width="184" height="36" viewBox="0 0 184 36" fill="none" xmlns="http://www.w3.org/2000/svg">
<path fill-rule="evenodd" clip-rule="evenodd"
  d="M43.285 13.283C43.3263 12.9377 43.2884 12.5875 43.1741 12.2591C43.0599 11.9307 42.8723 11.6326 42.6257 11.3875C42.3791 11.1423 42.0798 10.9566 41.7507 10.8444C41.4216 10.7322 41.0712 10.6964 40.7262 10.7398H36.4855C36.4472 10.7348 36.4083 10.7387 36.3717 10.7511C36.3352 10.7636 36.302 10.7842 36.2747 10.8115C36.2474 10.8388 36.2268 10.872 36.2143 10.9086C36.2019 10.9451 36.198 10.984 36.203 11.0223V24.5863C36.1996 24.6243 36.2046 24.6625 36.2176 24.6983C36.2306 24.7341 36.2513 24.7666 36.2782 24.7936C36.3052 24.8205 36.3377 24.8412 36.3735 24.8542C36.4093 24.8672 36.4475 24.8722 36.4855 24.8688H40.7262C41.0713 24.9122 41.4218 24.8764 41.751 24.7642C42.0802 24.6519 42.3795 24.4661 42.6261 24.2209C42.8728 23.9756 43.0603 23.6774 43.1745 23.3489C43.2887 23.0203 43.3265 22.6701 43.285 22.3247V19.0754C43.2826 18.7671 43.1684 18.4702 42.9637 18.2397C42.759 18.0092 42.4776 17.8607 42.1718 17.8218V17.7868C42.4778 17.7479 42.7593 17.5993 42.964 17.3686C43.1687 17.1379 43.2828 16.8407 43.285 16.5323V13.283ZM40.9357 15.9498C40.9456 16.0442 40.9339 16.1396 40.9017 16.2288C40.8694 16.3181 40.8173 16.3988 40.7494 16.4651C40.6814 16.5313 40.5994 16.5814 40.5094 16.6114C40.4193 16.6414 40.3237 16.6506 40.2296 16.6384H38.6225V13.0716H40.2296C40.3254 13.0584 40.423 13.0676 40.5146 13.0985C40.6063 13.1293 40.6896 13.1809 40.758 13.2493C40.8264 13.3177 40.878 13.401 40.9088 13.4927C40.9397 13.5844 40.9489 13.6819 40.9357 13.7777V15.9498ZM40.9357 21.8309C40.9489 21.9267 40.9397 22.0242 40.9088 22.1159C40.878 22.2076 40.8264 22.2909 40.758 22.3593C40.6896 22.4277 40.6063 22.4793 40.5146 22.5101C40.423 22.541 40.3254 22.5502 40.2296 22.537H38.6225V18.9693H40.2296C40.3254 18.9561 40.423 18.9653 40.5146 18.9961C40.6063 19.027 40.6896 19.0786 40.758 19.147C40.8264 19.2154 40.878 19.2987 40.9088 19.3904C40.9397 19.482 40.9489 19.5796 40.9357 19.6754V21.8309ZM47.0956 10.7398C47.0573 10.7348 47.0184 10.7387 46.9818 10.7511C46.9453 10.7636 46.9121 10.7842 46.8848 10.8115C46.8575 10.8388 46.8368 10.872 46.8244 10.9086C46.812 10.9451 46.8081 10.984 46.8131 11.0223V24.5863C46.809 24.6242 46.8136 24.6624 46.8264 24.6983C46.8393 24.7341 46.8601 24.7666 46.8872 24.7932C46.9144 24.8199 46.9473 24.84 46.9834 24.8521C47.0195 24.8643 47.0578 24.8681 47.0956 24.8632H48.9325C48.9703 24.8671 49.0084 24.8627 49.0442 24.8502C49.0801 24.8378 49.1128 24.8177 49.14 24.7913C49.1673 24.765 49.1885 24.7329 49.202 24.6975C49.2156 24.6621 49.2213 24.6241 49.2187 24.5863V11.0223C49.2221 10.9843 49.2171 10.9461 49.2041 10.9103C49.1911 10.8745 49.1704 10.842 49.1435 10.815C49.1166 10.7881 49.084 10.7674 49.0482 10.7544C49.0124 10.7414 48.9742 10.7364 48.9362 10.7398H47.0956ZM58.1728 10.7398C58.1345 10.7348 58.0956 10.7387 58.059 10.7511C58.0225 10.7636 57.9893 10.7842 57.962 10.8115C57.9347 10.8388 57.914 10.872 57.9016 10.9086C57.8892 10.9451 57.8853 10.984 57.8903 11.0223V18.4745H57.7841L55.0988 10.9697C55.0814 10.9001 55.04 10.8389 54.982 10.7969C54.9239 10.7548 54.8528 10.7346 54.7813 10.7398H53.0329C52.995 10.7364 52.9568 10.7414 52.921 10.7544C52.8851 10.7674 52.8526 10.7881 52.8257 10.815C52.7987 10.842 52.7781 10.8745 52.7651 10.9103C52.7521 10.9461 52.7471 10.9843 52.7505 11.0223V24.5863C52.7471 24.6243 52.7521 24.6625 52.7651 24.6983C52.7781 24.7341 52.7987 24.7666 52.8257 24.7936C52.8526 24.8205 52.8851 24.8412 52.921 24.8542C52.9568 24.8672 52.995 24.8722 53.0329 24.8688H54.8699C54.9082 24.8738 54.9471 24.8699 54.9836 24.8575C55.0202 24.845 55.0534 24.8244 55.0807 24.7971C55.108 24.7698 55.1286 24.7366 55.1411 24.7C55.1535 24.6635 55.1574 24.6246 55.1524 24.5863V17.0972H55.2447L57.942 24.638C57.9594 24.7076 58.0008 24.7687 58.0589 24.8108C58.117 24.8528 58.188 24.873 58.2595 24.8679H60.0079C60.0458 24.8712 60.0841 24.8663 60.1199 24.8533C60.1557 24.8403 60.1882 24.8196 60.2151 24.7926C60.2421 24.7657 60.2628 24.7332 60.2758 24.6974C60.2888 24.6616 60.2937 24.6233 60.2903 24.5854V11.0223C60.2937 10.9843 60.2888 10.9461 60.2758 10.9103C60.2628 10.8745 60.2421 10.842 60.2151 10.815C60.1882 10.7881 60.1557 10.7674 60.1199 10.7544C60.0841 10.7414 60.0458 10.7364 60.0079 10.7398H58.1728ZM72.3349 24.8632C72.5473 24.8632 72.6174 24.7571 72.5823 24.5632L69.6506 10.9872C69.6431 10.9148 69.6074 10.8483 69.5513 10.802C69.4951 10.7557 69.423 10.7334 69.3506 10.7398H66.896C66.8236 10.7334 66.7515 10.7557 66.6953 10.802C66.6392 10.8483 66.6035 10.9148 66.596 10.9872L63.6643 24.5678C63.6117 24.7617 63.6994 24.8679 63.8941 24.8679H65.7837C65.8536 24.871 65.922 24.847 65.9746 24.8009C66.0273 24.7548 66.0601 24.6902 66.0662 24.6205L66.5434 22.0422H69.6866L70.1814 24.6205C70.1875 24.6902 70.2203 24.7548 70.2729 24.8009C70.3255 24.847 70.3939 24.871 70.4638 24.8679L72.3349 24.8632ZM69.2444 19.9893H66.9837L68.1145 13.8304L69.2444 19.9893ZM83.1952 13.2783C83.2378 12.9345 83.2013 12.5854 83.0886 12.2578C82.9758 11.9301 82.7898 11.6325 82.5446 11.3877C82.2994 11.1429 82.0015 10.9572 81.6737 10.845C81.3459 10.7327 80.9968 10.6967 80.653 10.7398H76.2221C76.1842 10.7364 76.1459 10.7414 76.1101 10.7544C76.0743 10.7674 76.0418 10.7881 76.0148 10.815C75.9879 10.842 75.9672 10.8745 75.9542 10.9103C75.9412 10.9461 75.9362 10.9843 75.9396 11.0223V24.5863C75.9362 24.6243 75.9412 24.6625 75.9542 24.6983C75.9672 24.7341 75.9879 24.7666 76.0148 24.7936C76.0418 24.8205 76.0743 24.8412 76.1101 24.8542C76.1459 24.8672 76.1842 24.8722 76.2221 24.8688H78.0591C78.097 24.8722 78.1352 24.8672 78.1711 24.8542C78.2069 24.8412 78.2394 24.8205 78.2663 24.7936C78.2933 24.7666 78.314 24.7341 78.327 24.6983C78.34 24.6625 78.3449 24.6243 78.3415 24.5863V20.1351H79.56L80.7434 24.6205C80.7509 24.6928 80.7866 24.7594 80.8427 24.8057C80.8989 24.852 80.971 24.8743 81.0435 24.8679H82.8804C83.0743 24.8679 83.1804 24.7617 83.1278 24.5503L81.9093 19.9237C82.3415 19.7193 82.6987 19.3844 82.9306 18.9663C83.1624 18.5481 83.2572 18.0678 83.2017 17.5929L83.1952 13.2783ZM78.3388 17.8015V13.0688H80.0871C80.1826 13.0572 80.2796 13.0674 80.3705 13.0988C80.4615 13.1302 80.5442 13.1819 80.6122 13.2499C80.6802 13.3179 80.7319 13.4006 80.7633 13.4916C80.7947 13.5825 80.8049 13.6794 80.7933 13.775V17.0981C80.8049 17.1937 80.7947 17.2906 80.7633 17.3815C80.7319 17.4725 80.6802 17.5552 80.6122 17.6232C80.5442 17.6913 80.4615 17.7429 80.3705 17.7743C80.2796 17.8057 80.1826 17.8159 80.0871 17.8043L78.3388 17.8015ZM92.5203 10.7398C92.4302 10.7317 92.3401 10.7555 92.2659 10.8072C92.1916 10.8588 92.1379 10.935 92.1142 11.0223L90.136 16.0938L88.1578 11.0251C88.1341 10.9378 88.0804 10.8616 88.0061 10.8099C87.9318 10.7583 87.8417 10.7344 87.7516 10.7426H85.9857C85.7208 10.7426 85.5971 10.9014 85.7033 11.1488L88.9341 19.0071V24.5143C88.9281 24.5622 88.9331 24.6108 88.9488 24.6564C88.9644 24.702 88.9903 24.7435 89.0244 24.7776C89.0585 24.8117 89.0999 24.8375 89.1456 24.8532C89.1912 24.8688 89.2398 24.8739 89.2876 24.8679H90.9834C91.0312 24.8739 91.0798 24.8688 91.1255 24.8532C91.1711 24.8375 91.2125 24.8117 91.2466 24.7776C91.2808 24.7435 91.3066 24.702 91.3223 24.6564C91.3379 24.6108 91.3429 24.5622 91.3369 24.5143V19.0043L94.5678 11.146C94.6739 10.8986 94.5502 10.7398 94.2853 10.7398H92.5203ZM103.788 24.5863C103.781 24.6248 103.784 24.6643 103.796 24.7015C103.808 24.7387 103.829 24.7726 103.856 24.8002C103.884 24.8278 103.918 24.8484 103.955 24.8604C103.992 24.8723 104.032 24.8752 104.07 24.8688H108.308C108.653 24.9122 109.002 24.8763 109.331 24.7638C109.659 24.6513 109.957 24.4651 110.203 24.2196C110.448 23.9741 110.634 23.6758 110.747 23.3473C110.859 23.0189 110.895 22.6691 110.851 22.3247V13.3005C110.895 12.9553 110.859 12.6048 110.747 12.2754C110.635 11.946 110.45 11.6466 110.204 11.3997C109.959 11.1528 109.661 10.9651 109.332 10.8508C109.004 10.7364 108.654 10.6985 108.308 10.7398H104.069C104.031 10.7348 103.992 10.7387 103.955 10.7511C103.919 10.7636 103.886 10.7842 103.858 10.8115C103.831 10.8388 103.811 10.872 103.798 10.9086C103.786 10.9451 103.782 10.984 103.787 11.0223L103.788 24.5863ZM106.188 22.538V13.0707H107.812C107.909 13.0596 108.008 13.0708 108.099 13.1036C108.191 13.1363 108.275 13.1896 108.343 13.2595C108.411 13.3293 108.462 13.4138 108.493 13.5065C108.523 13.5993 108.532 13.6977 108.519 13.7944V21.8253C108.532 21.9211 108.523 22.0187 108.492 22.1104C108.461 22.202 108.409 22.2853 108.341 22.3537C108.272 22.4221 108.189 22.4738 108.097 22.5046C108.006 22.5354 107.908 22.5446 107.812 22.5315L106.188 22.538ZM121.428 11.0241C121.428 10.8478 121.357 10.7417 121.146 10.7417H114.648C114.611 10.7401 114.575 10.7465 114.541 10.7604C114.507 10.7743 114.476 10.7954 114.451 10.8222C114.426 10.849 114.407 10.8809 114.395 10.9158C114.383 10.9506 114.379 10.9876 114.383 11.0241V24.5863C114.379 24.6229 114.383 24.6598 114.395 24.6947C114.407 24.7295 114.426 24.7614 114.451 24.7882C114.476 24.815 114.507 24.8361 114.541 24.85C114.575 24.8639 114.611 24.8703 114.648 24.8688H121.147C121.359 24.8688 121.429 24.7626 121.429 24.5863V22.8195C121.429 22.6256 121.358 22.537 121.147 22.537H116.731V18.9693H120.104C120.144 18.9727 120.184 18.9671 120.221 18.953C120.258 18.9389 120.292 18.9167 120.319 18.8878C120.347 18.859 120.367 18.8244 120.379 18.7866C120.392 18.7487 120.395 18.7086 120.39 18.6692V16.9246C120.395 16.8854 120.391 16.8456 120.379 16.808C120.367 16.7704 120.347 16.7359 120.32 16.7071C120.293 16.6784 120.26 16.656 120.223 16.6418C120.186 16.6275 120.147 16.6216 120.107 16.6246H116.731V13.0928H121.147C121.359 13.0928 121.429 12.9691 121.429 12.7928L121.428 11.0241ZM132.024 11.0241C132.028 10.9862 132.023 10.948 132.01 10.9122C131.997 10.8763 131.976 10.8438 131.949 10.8169C131.922 10.7899 131.89 10.7692 131.854 10.7563C131.818 10.7433 131.78 10.7383 131.742 10.7417H125.243C125.205 10.7367 125.166 10.7406 125.13 10.753C125.093 10.7654 125.06 10.7861 125.032 10.8134C125.005 10.8407 124.985 10.8739 124.972 10.9104C124.96 10.947 124.956 10.9859 124.961 11.0241V24.5863C124.956 24.6246 124.96 24.6635 124.972 24.7C124.985 24.7366 125.005 24.7698 125.032 24.7971C125.06 24.8244 125.093 24.845 125.13 24.8575C125.166 24.8699 125.205 24.8738 125.243 24.8688H127.08C127.118 24.8722 127.156 24.8672 127.192 24.8542C127.228 24.8412 127.261 24.8205 127.287 24.7936C127.314 24.7666 127.335 24.7341 127.348 24.6983C127.361 24.6625 127.366 24.6243 127.363 24.5863V18.9554H130.686C130.724 18.9604 130.763 18.9565 130.8 18.9441C130.836 18.9317 130.869 18.911 130.897 18.8837C130.924 18.8564 130.945 18.8232 130.957 18.7867C130.969 18.7501 130.973 18.7112 130.968 18.6729V16.9034C130.972 16.8654 130.967 16.8272 130.954 16.7914C130.941 16.7556 130.92 16.723 130.893 16.6961C130.866 16.6692 130.834 16.6485 130.798 16.6355C130.762 16.6225 130.724 16.6175 130.686 16.6209H127.363V13.0716H131.744C131.782 13.075 131.82 13.07 131.856 13.057C131.892 13.044 131.924 13.0233 131.951 12.9964C131.978 12.9694 131.999 12.9369 132.012 12.9011C132.025 12.8653 132.03 12.8271 132.026 12.7891L132.024 11.0241ZM142.602 11.0241C142.602 10.8478 142.531 10.7417 142.32 10.7417H135.821C135.784 10.7401 135.748 10.7465 135.714 10.7604C135.68 10.7743 135.649 10.7954 135.624 10.8222C135.599 10.849 135.58 10.8809 135.568 10.9158C135.556 10.9506 135.552 10.9876 135.556 11.0241V24.5863C135.552 24.6229 135.556 24.6598 135.568 24.6947C135.58 24.7295 135.599 24.7614 135.624 24.7882C135.649 24.815 135.68 24.8361 135.714 24.85C135.748 24.8639 135.784 24.8703 135.821 24.8688H142.32C142.532 24.8688 142.602 24.7626 142.602 24.5863V22.8195C142.602 22.6256 142.531 22.537 142.32 22.537H137.904V18.9693H141.277C141.317 18.9722 141.356 18.9664 141.393 18.9521C141.43 18.9378 141.463 18.9154 141.49 18.8867C141.517 18.8579 141.538 18.8235 141.55 18.7858C141.562 18.7482 141.565 18.7084 141.56 18.6692V16.9246C141.565 16.8854 141.562 16.8456 141.55 16.808C141.538 16.7704 141.517 16.7359 141.49 16.7071C141.463 16.6784 141.43 16.656 141.393 16.6418C141.356 16.6275 141.317 16.6216 141.277 16.6246H137.904V13.0928H142.32C142.532 13.0928 142.602 12.9691 142.602 12.7928V11.0241ZM151.556 10.7417C151.518 10.7367 151.479 10.7406 151.442 10.753C151.406 10.7654 151.373 10.7861 151.345 10.8134C151.318 10.8407 151.297 10.8739 151.285 10.9104C151.273 10.947 151.269 10.9859 151.274 11.0241V18.4763H151.168L148.483 10.9706C148.466 10.901 148.424 10.8399 148.366 10.7978C148.308 10.7558 148.237 10.7356 148.166 10.7407H146.421C146.383 10.7374 146.345 10.7423 146.309 10.7553C146.273 10.7683 146.241 10.789 146.214 10.816C146.187 10.8429 146.166 10.8754 146.153 10.9112C146.14 10.947 146.135 10.9853 146.139 11.0232V24.5863C146.135 24.6243 146.14 24.6625 146.153 24.6983C146.166 24.7341 146.187 24.7666 146.214 24.7936C146.241 24.8205 146.273 24.8412 146.309 24.8542C146.345 24.8672 146.383 24.8722 146.421 24.8688H148.258C148.296 24.8738 148.335 24.8699 148.372 24.8575C148.408 24.845 148.441 24.8244 148.469 24.7971C148.496 24.7698 148.517 24.7366 148.529 24.7C148.542 24.6635 148.545 24.6246 148.54 24.5863V17.0972H148.633L151.335 24.638C151.352 24.7076 151.393 24.7687 151.452 24.8108C151.51 24.8528 151.581 24.873 151.652 24.8679H153.401C153.438 24.8712 153.477 24.8663 153.513 24.8533C153.548 24.8403 153.581 24.8196 153.608 24.7926C153.635 24.7657 153.655 24.7332 153.668 24.6974C153.681 24.6616 153.686 24.6233 153.683 24.5854V11.0223C153.686 10.9843 153.681 10.9461 153.668 10.9103C153.655 10.8745 153.635 10.842 153.608 10.815C153.581 10.7881 153.548 10.7674 153.513 10.7544C153.477 10.7414 153.438 10.7364 153.401 10.7398L151.556 10.7417ZM159.751 10.7417C159.407 10.6998 159.057 10.7367 158.73 10.8497C158.402 10.9627 158.105 11.1488 157.86 11.3938C157.614 11.6389 157.428 11.9365 157.315 12.2641C157.202 12.5917 157.165 12.9408 157.207 13.2848V17.4508C157.197 17.5984 157.24 17.7449 157.327 17.8644C157.414 17.9839 157.541 18.0688 157.685 18.1043L161.87 19.4816V21.8299C161.883 21.9258 161.874 22.0233 161.843 22.115C161.812 22.2067 161.761 22.29 161.692 22.3583C161.624 22.4267 161.541 22.4784 161.449 22.5092C161.357 22.54 161.26 22.5493 161.164 22.5361H160.316C160.221 22.5477 160.124 22.5375 160.033 22.5061C159.942 22.4747 159.859 22.4231 159.791 22.355C159.723 22.287 159.672 22.2043 159.64 22.1134C159.609 22.0224 159.599 21.9255 159.61 21.8299V20.4702C159.617 20.4317 159.614 20.3922 159.602 20.355C159.59 20.3178 159.569 20.284 159.542 20.2563C159.514 20.2287 159.48 20.2081 159.443 20.1962C159.406 20.1842 159.366 20.1813 159.328 20.1877H157.491C157.453 20.1828 157.414 20.1866 157.377 20.1991C157.341 20.2115 157.307 20.2321 157.28 20.2594C157.253 20.2867 157.232 20.3199 157.22 20.3565C157.207 20.393 157.203 20.4319 157.208 20.4702V22.3247C157.167 22.6683 157.205 23.0167 157.318 23.3437C157.431 23.6706 157.617 23.9676 157.862 24.2121C158.107 24.4566 158.404 24.6423 158.731 24.7551C159.059 24.8679 159.407 24.9049 159.751 24.8632H161.729C162.073 24.9065 162.422 24.8706 162.75 24.7584C163.078 24.6462 163.376 24.4606 163.621 24.2158C163.866 23.9709 164.052 23.6733 164.165 23.3455C164.278 23.0178 164.314 22.6687 164.272 22.3247V18.2455C164.28 18.1006 164.238 17.9573 164.154 17.8387C164.071 17.7202 163.949 17.6333 163.81 17.592L159.607 16.2147V13.7777C159.598 13.6827 159.61 13.5868 159.642 13.4969C159.674 13.4069 159.726 13.3253 159.794 13.2577C159.861 13.1902 159.943 13.1385 160.033 13.1063C160.123 13.0741 160.219 13.0622 160.314 13.0716H161.161C161.257 13.0584 161.354 13.0676 161.446 13.0985C161.538 13.1293 161.621 13.1809 161.689 13.2493C161.758 13.3177 161.809 13.401 161.84 13.4927C161.871 13.5844 161.88 13.6819 161.867 13.7777V15.155C161.864 15.193 161.869 15.2312 161.882 15.267C161.895 15.3028 161.915 15.3353 161.942 15.3623C161.969 15.3892 162.002 15.4099 162.038 15.4229C162.074 15.4359 162.112 15.4409 162.15 15.4375H163.987C164.025 15.4425 164.064 15.4386 164.1 15.4262C164.137 15.4137 164.17 15.3931 164.197 15.3658C164.225 15.3385 164.245 15.3053 164.258 15.2687C164.27 15.2322 164.274 15.1933 164.269 15.155V13.283C164.313 12.9386 164.277 12.589 164.164 12.2607C164.052 11.9323 163.866 11.6341 163.62 11.3887C163.375 11.1433 163.077 10.9573 162.748 10.8448C162.42 10.7323 162.07 10.6964 161.726 10.7398L159.751 10.7417ZM174.852 11.0223C174.852 10.846 174.781 10.7398 174.57 10.7398H168.071C168.035 10.7383 167.998 10.7447 167.964 10.7586C167.93 10.7725 167.899 10.7936 167.874 10.8204C167.849 10.8472 167.83 10.8791 167.818 10.9139C167.807 10.9488 167.803 10.9857 167.806 11.0223V24.5863C167.803 24.6229 167.807 24.6598 167.818 24.6947C167.83 24.7295 167.849 24.7614 167.874 24.7882C167.899 24.815 167.93 24.8361 167.964 24.85C167.998 24.8639 168.035 24.8703 168.071 24.8688H174.57C174.782 24.8688 174.852 24.7626 174.852 24.5863V22.8195C174.852 22.6256 174.781 22.537 174.57 22.537H170.155V18.9693H173.528C173.567 18.9722 173.607 18.9664 173.644 18.9521C173.68 18.9378 173.714 18.9154 173.741 18.8867C173.768 18.8579 173.788 18.8235 173.8 18.7858C173.812 18.7482 173.816 18.7084 173.81 18.6692V16.9246C173.816 16.8854 173.812 16.8456 173.8 16.808C173.788 16.7704 173.768 16.7359 173.741 16.7071C173.714 16.6784 173.68 16.656 173.644 16.6418C173.607 16.6275 173.567 16.6216 173.528 16.6246H170.155V13.0928H174.57C174.782 13.0928 174.852 12.9691 174.852 12.7928V11.0223Z" fill="white"/>
<path d="M2.39821 10.0457C3.35731 9.97643 4.7198 9.86104 5.39274 9.76873C7.80076 9.50793 10.1292 8.75377 12.2329 7.55329C14.3133 8.71777 16.6034 9.45939 18.9715 9.7355C19.5826 9.82042 20.8833 9.93673 21.7408 10.006L23.8639 8.25669C23.7244 8.09136 23.5532 7.95557 23.3604 7.85729C23.1677 7.75901 22.9572 7.70022 22.7415 7.68437C22.7415 7.68437 20.1568 7.48314 19.3445 7.35944C17.1586 7.13721 15.0468 6.4444 13.1542 5.32862C12.8978 5.13695 12.5918 5.02289 12.2726 5H12.1175C11.7931 5.00962 11.4818 5.1298 11.235 5.34062C9.3509 6.47994 7.23588 7.18358 5.04473 7.40006C4.27117 7.50806 1.94958 7.67699 1.57019 7.70929C1.31964 7.72343 1.07568 7.79485 0.857069 7.91808C0.638463 8.04131 0.451043 8.21305 0.309235 8.42008L2.39821 10.1075V10.0457Z" fill="white"/>
<path d="M4.8675 23.834C3.26592 21.8069 2.4379 17.2024 2.40006 10.1297L0.309238 8.44316C0.108592 8.71996 0.000378062 9.053 0 9.39488C0 14.6104 0.309238 21.9306 2.98715 25.3202C4.96812 27.8199 10.8335 30.5357 11.4917 30.8532C11.6827 30.9373 11.8871 30.987 12.0954 31V28.5003C10.0618 27.5098 6.11276 25.4051 4.8675 23.834Z" fill="white"/>
<path d="M12.8837 30.8597C12.9455 30.8597 19.2595 27.9427 21.3411 25.3119C23.9876 22.0229 24.2812 15.059 24.2812 9.37087C24.2804 8.96817 24.1316 8.57981 23.863 8.27977L21.7399 10.029H21.8866C21.8866 13.0753 21.763 20.9013 19.4571 23.8109C18.1804 25.4208 14.2342 27.5485 12.183 28.5233L12.1138 28.4846V30.9843H12.2061C12.4379 30.9873 12.6681 30.945 12.8837 30.8597Z" fill="white"/>
<path d="M182.114 14.0297L180.618 10.6521H181.224L182.27 13.1279L183.317 10.6494H183.923L182.426 14.0297H182.114ZM180.508 14.0297V10.6521H181.095V14.0297H180.508ZM183.446 14.0297V10.6521H184.033V14.0297H183.446ZM178.306 14.0297V10.9457H178.897V14.0297H178.306ZM177.277 11.1681V10.654H179.921V11.1681H177.277Z" fill="white"/>
</svg>
