<svg width="36" height="36" viewBox="0 0 36 36" fill="none" xmlns="http://www.w3.org/2000/svg">
<path d="M5.87732 8.05124C7.0281 7.96812 8.6612 7.82881 9.46897 7.7176C12.3569 7.4057 15.1496 6.50228 17.6731 5.06367C20.1687 6.46063 22.9159 7.35025 25.7566 7.68131C26.4895 7.78316 28.0488 7.92247 29.079 8.00558L31.6217 5.90773C31.4544 5.70932 31.2491 5.54633 31.0179 5.42832C30.7867 5.31032 30.5343 5.23967 30.2755 5.22054C30.2755 5.22054 27.1755 4.97938 26.2015 4.8307C23.5799 4.56241 21.0475 3.72972 18.7782 2.38984C18.4714 2.1621 18.1058 2.02685 17.7246 2H17.5373C17.1499 2.0127 16.7784 2.15678 16.4837 2.40857C14.2217 3.77559 11.6825 4.61918 9.05221 4.87753C8.12386 5.00747 5.33998 5.21117 4.88459 5.24863C4.58439 5.26517 4.29198 5.35027 4.02978 5.49739C3.76759 5.64452 3.5426 5.84977 3.37207 6.09738L5.87732 8.12499V8.05124Z" fill="#00A0E0"/>
<path d="M8.83818 24.5894C6.91592 22.1579 5.9267 16.6358 5.87753 8.15309L3.37111 6.13016C3.13043 6.46212 3.00057 6.86154 3 7.27157C3 13.5265 3.37111 22.3066 6.58228 26.3712C8.95876 29.3681 15.9945 32.6273 16.7824 33.0078C17.0113 33.1088 17.2562 33.1687 17.5059 33.1846V30.1876C15.065 28.9982 10.332 26.473 8.83818 24.5894Z" fill="#FF9E1A"/>
<path d="M18.4517 33.0171C18.5255 33.0171 26.0986 29.518 28.5957 26.363C31.7694 22.419 32.1229 14.0709 32.1229 7.24464C32.1222 6.76166 31.9439 6.29583 31.6219 5.93582L29.078 8.03368H29.2548C29.2548 11.6909 29.1061 21.0727 26.341 24.5625C24.8097 26.4929 20.0767 29.045 17.6171 30.2145L17.5339 30.1677V33.1658H17.651C17.925 33.1681 18.1969 33.1176 18.4517 33.0171Z" fill="#121419"/>
</svg>