<svg width="184" height="36" viewBox="0 0 184 36" fill="none" xmlns="http://www.w3.org/2000/svg">
<path d="M18.1242 25.9934H15.4397L9.06495 15.1372C9.05347 15.138 9.04211 15.14 9.03104 15.1432C9.02553 15.1463 9.02099 15.1509 9.01793 15.1565C7.52634 17.9251 6.03501 20.6938 4.54392 23.4626C4.53272 23.4849 4.5229 23.5079 4.51451 23.5314C4.51263 23.5365 4.51563 23.5434 4.51657 23.5501C4.51751 23.5569 4.519 23.5638 4.52313 23.5676C4.5284 23.571 4.53466 23.5726 4.54092 23.5721L11.1792 23.5801C11.192 23.5828 11.2046 23.5866 11.2167 23.5914L12.6917 25.9664C12.6837 25.9829 12.6826 25.9895 12.6786 25.9921C12.6729 25.9953 12.6664 25.9969 12.6599 25.9966C12.6037 25.9977 12.5475 25.9994 12.4913 25.9994H0.00209448C-0.0102709 25.9301 0.0350689 25.8896 0.0607363 25.8443C1.1264 23.9588 2.1927 22.0735 3.25961 20.1884L8.92669 10.1725C8.96003 10.1135 8.99507 10.0552 9.02692 10.0009C9.03662 9.9997 9.04644 9.9997 9.05615 10.0009C9.06188 10.0033 9.06668 10.0075 9.06982 10.0129C12.082 15.32 15.0939 20.6273 18.1055 25.9348C18.1135 25.9536 18.1198 25.9731 18.1242 25.993" fill="white"/>
<path d="M129.038 17.3338C128.961 17.2996 128.824 17.306 128.878 17.103C129.053 16.9823 129.26 16.8498 129.46 16.7023C130.049 16.2809 130.446 15.6429 130.564 14.9288C130.756 14.0628 130.643 13.1569 130.242 12.3652C129.842 11.5736 129.18 10.9451 128.368 10.5868C127.516 10.2034 126.589 10.0119 125.655 10.0259C124.437 10.0109 123.219 10.0195 122 10.0195H117.547V15.2717C117.547 17.0293 117.538 18.7879 117.547 20.5422C117.56 22.2516 117.502 23.9536 117.587 25.6802C120.711 25.6802 123.752 25.6951 126.792 25.6673C127.365 25.6384 127.93 25.5135 128.461 25.2977C129.167 25.0753 129.8 24.6669 130.293 24.1155C130.786 23.5641 131.122 22.89 131.265 22.164C131.549 21.2261 131.479 20.2164 131.069 19.3263C130.659 18.4363 129.936 17.7277 129.038 17.3348M122.084 13.6221C122.867 13.5879 123.607 13.6072 124.345 13.6072C124.63 13.5983 124.916 13.6097 125.199 13.6414C125.505 13.6654 125.791 13.7998 126.004 14.0195C126.217 14.2391 126.343 14.5289 126.359 14.8348C126.382 15.1045 126.306 15.3736 126.146 15.5915C125.985 15.8095 125.75 15.9613 125.486 16.0186C125.067 16.099 124.642 16.1394 124.215 16.1393C123.543 16.1574 122.87 16.1393 122.087 16.1393L122.084 13.6221ZM125.643 22.0625C125.181 22.1022 124.717 22.1158 124.254 22.1031C123.551 22.1095 122.845 22.1031 122.052 22.1031C122.027 21.0636 122.037 20.117 122.052 19.0656C123.27 19.0656 124.337 19.0282 125.401 19.0785C125.599 19.0636 125.798 19.0901 125.985 19.1561C126.172 19.2222 126.343 19.3263 126.488 19.462C126.632 19.5977 126.747 19.762 126.825 19.9445C126.903 20.1269 126.942 20.3236 126.94 20.5219C126.961 20.709 126.944 20.8985 126.889 21.0788C126.835 21.2591 126.744 21.4264 126.623 21.5706C126.502 21.7148 126.353 21.8329 126.185 21.9176C126.017 22.0024 125.833 22.052 125.645 22.0636" fill="white"/>
<path d="M99.9177 25.6705H95.4304V19.7826C93.8524 19.5293 92.2474 19.4901 90.6589 19.6661C90.5289 20.3197 90.4961 20.989 90.5617 21.6523C90.5339 22.2933 90.5553 22.9418 90.5553 23.5861V25.5712C90.4324 25.6406 90.3726 25.7036 90.3117 25.7036C88.9228 25.709 87.5232 25.7036 86.1673 25.7036C86.1054 25.6427 86.0776 25.6192 86.0552 25.5915C86.0327 25.5637 86.0017 25.5348 86.0017 25.5071C85.9943 25.1865 85.9879 24.866 85.9879 24.5455C85.9879 19.7494 85.9879 14.9544 85.9879 10.0708C86.7432 10.0137 87.5011 9.99795 88.2582 10.0237C88.9708 10.0141 89.6835 10.0237 90.4613 10.0237C90.5778 10.9807 90.6078 11.9461 90.551 12.9084C90.5756 13.8315 90.551 14.7557 90.551 15.6596C92.1614 15.8331 93.7853 15.8413 95.3973 15.6842C95.3973 14.7792 95.4101 13.8582 95.4123 12.9373C95.4144 12.0163 95.4123 11.0815 95.4123 10.1124C96.1628 10.008 96.922 9.97936 97.6783 10.0269C98.391 10.0088 99.1047 10.0269 99.7425 10.0269C99.8309 10.0792 99.9007 10.1577 99.9423 10.2516C99.9839 10.3454 99.9951 10.4499 99.9743 10.5504C99.9743 15.4943 99.9743 20.4382 99.9743 25.3821C99.9626 25.4816 99.9437 25.5801 99.9177 25.6769" fill="white"/>
<path d="M101.782 10.059H106.225C106.46 10.3475 106.369 10.6456 106.369 10.9201C106.376 13.7151 106.369 16.5089 106.375 19.3039C106.375 19.6981 106.391 20.0913 106.408 20.4845C106.428 20.8452 106.559 21.1909 106.785 21.4727C107.118 21.8537 107.554 22.1296 108.04 22.2667C108.527 22.4037 109.043 22.3958 109.525 22.2442C109.951 22.161 110.339 21.9406 110.628 21.6164C110.918 21.2923 111.093 20.8824 111.127 20.4492C111.166 20.0944 111.179 19.7374 111.168 19.3808C111.168 16.6578 111.168 13.9348 111.168 11.2118V10.1712C112.676 9.98106 114.202 9.97104 115.713 10.1413C115.726 10.3058 115.752 10.4799 115.752 10.6541C115.752 13.6285 115.761 16.6019 115.752 19.5753C115.767 20.292 115.692 21.0079 115.527 21.7057C115.322 22.5822 114.894 23.391 114.285 24.0543C113.676 24.7176 112.907 25.2131 112.052 25.4932C111.345 25.7533 110.604 25.9078 109.853 25.9515C108.565 26.0671 107.266 25.9758 106.007 25.6812C104.894 25.4361 103.89 24.8393 103.144 23.9791C102.397 23.1189 101.947 22.0412 101.861 20.9054C101.798 20.4449 101.763 19.9812 101.754 19.5165C101.745 16.5784 101.749 13.6403 101.754 10.7032C101.754 10.528 101.769 10.3528 101.783 10.0622" fill="white"/>
<path d="M34.667 15.5399C34.3749 13.9152 33.4959 12.4545 32.1972 11.4355C30.8985 10.4165 29.2706 9.91026 27.623 10.0131C25.9766 10.0473 24.3259 10.0131 22.6795 10.0227C22.4423 10.0227 22.1709 9.93293 21.9861 10.1765C21.8793 11.6413 21.9092 24.7944 22.0288 25.6182C22.0908 25.646 22.1517 25.6983 22.2137 25.6983C24.3259 25.6983 26.4478 25.7966 28.5515 25.6737C29.8548 25.6587 31.1202 25.2331 32.1677 24.4574C33.2152 23.6817 33.9915 22.5954 34.386 21.3531C35.0634 19.488 35.1614 17.4617 34.667 15.5399ZM31.6755 19.117C31.6235 19.6146 31.516 20.1048 31.355 20.5785C31.17 21.1826 30.8147 21.7204 30.3316 22.1275C29.8485 22.5346 29.2582 22.7936 28.6316 22.8735C27.5052 22.9971 26.37 23.0207 25.2394 22.944C25.0888 22.0593 25.0482 14.775 25.1689 12.9277C25.3195 12.7087 25.5514 12.7738 25.7544 12.7706C26.4702 12.7706 27.185 12.7642 27.9008 12.7802C28.5692 12.7765 29.2241 12.9684 29.7847 13.3323C30.3453 13.6963 30.7872 14.2163 31.0558 14.8284C31.6824 16.1654 31.898 17.6583 31.6755 19.118" fill="white"/>
<path d="M48.1663 10.107C48.2669 10.9585 48.273 11.8184 48.1845 12.6712C46.7688 12.778 45.4152 12.7086 44.0647 12.7204C42.7142 12.7321 41.3574 12.7204 39.9449 12.7204C39.8242 13.886 39.9172 14.9843 39.8798 16.1168C40.6617 16.242 41.4555 16.2756 42.2452 16.2172C43.0679 16.2418 43.8927 16.2226 44.7164 16.2226H47.1107C47.2262 17.0581 47.2645 17.9025 47.225 18.7451C46.0044 18.8386 44.7795 18.8632 43.5561 18.8188C42.3809 18.838 41.2057 18.8188 40.04 18.8188C39.8411 20.2168 39.8307 21.6351 40.009 23.0358C41.3841 23.1181 42.773 23.0561 44.1609 23.0732C45.5113 23.0892 46.8629 23.0497 48.2924 23.0999C48.318 23.9835 48.3116 24.7891 48.3009 25.5829C47.3789 25.7378 38.009 25.7613 36.7974 25.6246C36.6649 24.6918 36.6575 11.1092 36.7889 10.1134C37.6361 9.9831 47.0819 9.966 48.1684 10.0985" fill="white"/>
<path d="M79.4021 10.0536H76.1521C75.4587 11.6391 70.8934 24.9045 70.7801 25.6673H73.8785C74.2236 24.5786 74.5537 23.5305 74.8774 22.5091C76.7813 22.3507 78.6954 22.36 80.5977 22.5369C80.9339 23.5733 81.274 24.6228 81.618 25.6855C82.7123 25.7461 83.8094 25.7357 84.9023 25.6545C83.055 20.4118 81.2323 15.2333 79.4064 10.0558M79.1927 19.9364H75.6766C76.3615 17.6724 77.0185 15.5111 77.7248 13.1702C78.4246 15.4737 79.0816 17.6479 79.7355 19.7943C79.5801 19.9106 79.3849 19.9606 79.1927 19.9332" fill="white"/>
<path d="M59.5512 10.0654H72.106C72.1841 10.4909 72.2067 10.9247 72.1733 11.3561C72.1808 11.777 72.1659 12.198 72.1605 12.6766C70.5835 12.792 69.0856 12.6766 67.5407 12.7492C67.4339 13.5953 67.406 14.4494 67.4574 15.3006C67.4382 16.1553 67.4574 17.0207 67.4574 17.8808V25.6513C66.9123 25.7263 66.3612 25.7467 65.812 25.7122C65.3206 25.7197 64.828 25.6983 64.2671 25.6887V12.823C63.7653 12.7166 63.2504 12.6853 62.7393 12.73C62.2051 12.7129 61.6645 12.73 61.1271 12.73C60.6324 12.73 60.1388 12.7193 59.5683 12.7129C59.5117 11.8187 59.5394 11.0035 59.5555 10.0708" fill="white"/>
<path d="M53.5062 23.0754C55.9465 23.0946 58.3301 23.0754 60.8024 23.0903C60.8312 23.975 60.8184 24.7816 60.813 25.5787C59.9936 25.7496 52.1258 25.8009 50.3907 25.6556C50.365 25.6322 50.341 25.6068 50.3192 25.5797C50.2977 25.5533 50.2841 25.5215 50.2796 25.4878C50.2746 20.472 50.2718 15.4562 50.2711 10.4404C50.2827 10.3225 50.3038 10.2056 50.3341 10.0911C50.8207 10.0056 51.3162 9.98295 51.8085 10.0237C52.3075 10.0077 52.8075 10.0237 53.2776 10.0237C53.5725 10.3336 53.4581 10.6733 53.4592 10.98C53.4677 14.635 53.4592 18.2889 53.4667 21.9439C53.4667 22.2933 53.4913 22.6427 53.5073 23.0818" fill="white"/>
<path d="M134.622 24.1224V21.5037H135.904C136.062 21.5032 136.218 21.5398 136.36 21.6106C136.494 21.6749 136.608 21.7751 136.689 21.9001C136.774 22.0418 136.817 22.205 136.812 22.3702C136.817 22.5368 136.772 22.7012 136.684 22.8425C136.6 22.9711 136.482 23.0736 136.343 23.1384C136.195 23.2073 136.034 23.242 135.871 23.2399H134.991V22.7548H135.725C135.82 22.7565 135.912 22.7222 135.983 22.6587C136.02 22.622 136.049 22.5775 136.068 22.5284C136.086 22.4793 136.094 22.4268 136.09 22.3745C136.095 22.3229 136.088 22.2707 136.069 22.2223C136.051 22.1738 136.021 22.1305 135.983 22.0956C135.912 22.0388 135.824 22.0075 135.733 22.007H135.305V24.1224H134.622ZM136.294 22.913L136.89 24.1224H136.142L135.587 22.913H136.294ZM135.653 25.6844C135.274 25.6871 134.898 25.6122 134.549 25.4643C134.211 25.3211 133.904 25.1139 133.644 24.8543C133.384 24.5947 133.177 24.2874 133.034 23.9493C132.886 23.6003 132.811 23.2247 132.814 22.8457C132.811 22.4666 132.886 22.091 133.034 21.742C133.177 21.4039 133.384 21.0966 133.644 20.8371C133.904 20.5774 134.211 20.3702 134.549 20.227C134.896 20.0798 135.27 20.0049 135.647 20.0069C136.026 20.0042 136.402 20.0791 136.751 20.227C137.089 20.3702 137.396 20.5774 137.656 20.8371C137.916 21.0966 138.123 21.4039 138.266 21.742C138.414 22.091 138.489 22.4666 138.486 22.8457C138.489 23.2247 138.414 23.6003 138.266 23.9493C138.123 24.2874 137.916 24.5947 137.656 24.8543C137.396 25.1139 137.089 25.3211 136.751 25.4643C136.402 25.6122 136.026 25.6871 135.647 25.6844H135.653ZM135.653 24.9365C136.021 24.9394 136.384 24.8415 136.701 24.6534C137.012 24.4698 137.272 24.2098 137.455 23.898C137.642 23.5793 137.739 23.2154 137.735 22.8457C137.74 22.4758 137.643 22.1118 137.455 21.7933C137.272 21.4817 137.012 21.2218 136.701 21.0379C136.382 20.8491 136.018 20.7516 135.648 20.7559C135.279 20.7521 134.916 20.8497 134.598 21.0379C134.286 21.2212 134.026 21.4812 133.843 21.7933C133.655 22.112 133.559 22.4759 133.563 22.8457C133.559 23.2154 133.655 23.5793 133.843 23.898C134.026 24.2101 134.286 24.4701 134.598 24.6534C134.916 24.8415 135.278 24.939 135.647 24.9355L135.653 24.9365Z" fill="white"/>
</svg>
