<svg width="184" height="36" viewBox="0 0 184 36" fill="none" xmlns="http://www.w3.org/2000/svg">
<path d="M42.5864 10.4962V12.1721H41.2741V7.11394H43.3672C43.6003 7.09985 43.8339 7.13277 44.0541 7.21075C44.2742 7.28873 44.4764 7.41018 44.6487 7.56787C44.8114 7.72639 44.9377 7.91839 45.0189 8.13056C45.1001 8.34273 45.1343 8.57001 45.119 8.79668C45.1366 9.02613 45.1059 9.25675 45.0288 9.47358C44.9517 9.69042 44.8299 9.88865 44.6714 10.0554C44.5025 10.2106 44.3038 10.3296 44.0874 10.4053C43.8709 10.4809 43.6413 10.5115 43.4126 10.4953L42.5864 10.4962ZM42.5864 9.43446H43.0263C43.2238 9.4469 43.4195 9.3906 43.5801 9.27513C43.6401 9.21496 43.6861 9.14234 43.7149 9.0624C43.7437 8.98246 43.7546 8.89717 43.7467 8.81257C43.7531 8.73061 43.743 8.6482 43.7169 8.57022C43.6909 8.49225 43.6495 8.42029 43.5951 8.35863C43.4395 8.22621 43.2377 8.16092 43.034 8.17705H42.5864V9.43446Z" fill="white"/>
<path d="M47.6751 7.11394C47.9009 7.09889 48.1273 7.13091 48.3401 7.20795C48.5529 7.285 48.7473 7.4054 48.9111 7.56152C49.1936 7.87258 49.348 8.27894 49.3433 8.69908C49.3495 8.89267 49.3172 9.08556 49.2481 9.26652C49.1791 9.44748 49.0747 9.61289 48.9411 9.75312C48.7457 9.93232 48.504 10.0531 48.2434 10.1017L49.8285 12.1721H48.198L46.9392 10.2311V12.1726H45.6273V7.11394H47.6751ZM46.9397 9.38362H47.1898C47.419 9.3914 47.6438 9.319 47.8253 9.17889C47.9322 9.06315 47.9918 8.91155 47.9924 8.75401C47.9928 8.67518 47.9776 8.59704 47.9477 8.52412C47.9178 8.45119 47.8738 8.38491 47.8181 8.32912C47.6411 8.18528 47.4158 8.11477 47.1884 8.13211H46.9383L46.9397 9.38362Z" fill="white"/>
<path d="M53.0674 8.22836H51.5049V9.07041H52.9838V10.1853H51.5049V11.0573H53.0674V12.1722H50.1931V7.11349H53.0674V8.22836Z" fill="white"/>
<path d="M54.0474 10.6555C54.3571 10.965 54.7705 11.1487 55.2077 11.1712C55.2999 11.1791 55.3927 11.1677 55.4803 11.1377C55.5678 11.1077 55.6481 11.0597 55.7161 10.9969C55.799 10.9119 55.8452 10.7979 55.845 10.6792C55.8447 10.6211 55.8316 10.5638 55.8067 10.5114C55.7817 10.459 55.7455 10.4128 55.7007 10.3759C55.5019 10.2452 55.2796 10.1547 55.0461 10.1095L54.7047 10.0032C54.4317 9.93137 54.1816 9.79071 53.9784 9.5947C53.7714 9.34414 53.6683 9.0238 53.6902 8.69954C53.6804 8.47526 53.7163 8.25134 53.7958 8.04141C53.8753 7.83147 53.9968 7.63993 54.1527 7.47845C54.326 7.31658 54.5299 7.19089 54.7523 7.10874C54.9748 7.02659 55.2114 6.98962 55.4483 7C55.9935 7.01444 56.5282 7.15423 57.0107 7.40854L56.4873 8.43217C56.2499 8.21892 55.9439 8.09781 55.6248 8.09081C55.4669 8.08531 55.3126 8.13943 55.1927 8.24242C55.1535 8.27642 55.1218 8.31818 55.0996 8.36507C55.0774 8.41195 55.0652 8.46293 55.0638 8.51478C55.0585 8.59623 55.0829 8.67683 55.1323 8.74175C55.2525 8.86037 55.4059 8.93955 55.5722 8.96872L55.9739 9.08992C56.3199 9.1689 56.6375 9.34166 56.8918 9.58925C57.0056 9.70892 57.0934 9.85091 57.1496 10.0062C57.2058 10.1616 57.2291 10.3269 57.2182 10.4917C57.2298 10.7254 57.1934 10.9591 57.1113 11.1782C57.0291 11.3973 56.903 11.5973 56.7406 11.7659C56.5409 11.9508 56.305 12.0921 56.0477 12.1809C55.7904 12.2697 55.5175 12.304 55.2463 12.2815C54.9075 12.2886 54.5704 12.2319 54.2526 12.1145C53.9818 12.0123 53.7246 11.8772 53.4868 11.7123L54.0474 10.6555Z" fill="white"/>
<path d="M57.998 10.6556C58.3077 10.965 58.7211 11.1487 59.1583 11.1712C59.2505 11.1791 59.3433 11.1676 59.4309 11.1376C59.5184 11.1076 59.5987 11.0597 59.6667 10.9969C59.7496 10.9119 59.7958 10.7979 59.7956 10.6792C59.7953 10.6211 59.7822 10.5638 59.7573 10.5114C59.7323 10.459 59.6961 10.4128 59.6513 10.3759C59.4526 10.2452 59.2302 10.1547 58.9967 10.1095L58.6553 10.0032C58.3823 9.93139 58.1322 9.79073 57.929 9.5947C57.722 9.34414 57.6189 9.02381 57.6408 8.69954C57.6309 8.47527 57.6669 8.25134 57.7464 8.04141C57.826 7.83148 57.9474 7.63993 58.1033 7.47845C58.2767 7.31653 58.4806 7.19081 58.7031 7.10865C58.9257 7.0265 59.1623 6.98956 59.3993 7C59.9446 7.01444 60.4792 7.15424 60.9618 7.40855L60.4384 8.43217C60.201 8.21892 59.895 8.09782 59.5759 8.09081C59.4179 8.08536 59.2637 8.13947 59.1438 8.24243C59.1046 8.27642 59.0729 8.31819 59.0507 8.36507C59.0285 8.41195 59.0163 8.46294 59.0148 8.51479C59.0095 8.59617 59.0337 8.67675 59.0829 8.74176C59.2031 8.86038 59.3565 8.93955 59.5228 8.96872L59.9245 9.08993C60.2705 9.1689 60.5881 9.34166 60.8424 9.58925C60.9563 9.70954 61.0439 9.85221 61.0997 10.0082C61.1555 10.1642 61.1783 10.3301 61.1665 10.4953C61.1781 10.7291 61.1417 10.9627 61.0596 11.1818C60.9775 11.401 60.8513 11.601 60.689 11.7695C60.4893 11.9544 60.2534 12.0957 59.9962 12.1845C59.739 12.2732 59.4662 12.3075 59.195 12.2852C58.8563 12.2922 58.5192 12.2356 58.2014 12.1181C57.9306 12.0159 57.6734 11.8808 57.4356 11.7159L57.998 10.6556Z" fill="white"/>
<path d="M63.1148 7.11394V10.1099C63.1013 10.2509 63.1173 10.3931 63.1617 10.5276C63.2061 10.6621 63.2779 10.7859 63.3726 10.8911C63.5399 11.0433 63.7567 11.1294 63.9827 11.1336C64.2088 11.1378 64.4286 11.0597 64.6014 10.9138C64.7167 10.7931 64.8033 10.6478 64.8545 10.4888C64.9058 10.3299 64.9204 10.1614 64.8974 9.99598V7.11394H66.2092V10.0191C66.2397 10.3172 66.2045 10.6182 66.1063 10.9012C66.008 11.1842 65.849 11.4423 65.6405 11.6574C65.4223 11.8737 65.161 12.0417 64.8735 12.1502C64.5861 12.2586 64.279 12.3053 63.9723 12.287C63.6663 12.3048 63.36 12.2602 63.0719 12.1558C62.7838 12.0515 62.5199 11.8896 62.2963 11.6801C61.9272 11.209 61.7509 10.6153 61.8029 10.0191V7.11394H63.1148Z" fill="white"/>
<path d="M69.129 7.11394C69.3548 7.09889 69.5812 7.13091 69.794 7.20795C70.0068 7.285 70.2012 7.4054 70.3651 7.56152C70.6475 7.87258 70.8019 8.27894 70.7972 8.69908C70.8035 8.89267 70.7711 9.08558 70.7021 9.26655C70.633 9.44752 70.5287 9.61292 70.395 9.75312C70.1996 9.93232 69.9579 10.0531 69.6973 10.1017L71.2825 12.1721H69.6519L68.3932 10.2307V12.1721H67.0813V7.11394H69.129ZM68.3936 9.38362H68.6442C68.8734 9.39136 69.0981 9.31896 69.2797 9.17889C69.3866 9.06317 69.4462 8.91155 69.4467 8.75401C69.4472 8.67518 69.432 8.59704 69.4021 8.52412C69.3722 8.45119 69.3281 8.38491 69.2724 8.32912C69.0961 8.18496 68.8713 8.11382 68.6442 8.1303H68.394L68.3936 9.38362Z" fill="white"/>
<path d="M74.5208 8.22836H72.9584V9.07041H74.4373V10.1853H72.9584V11.0573H74.5208V12.1722H71.6465V7.11349H74.5208V8.22836Z" fill="white"/>
<path d="M44.9074 20.3779C44.5473 20.5319 44.1614 20.6167 43.7699 20.6281C43.0431 20.6436 42.3397 20.3709 41.8134 19.8695C41.3281 19.3782 41.0534 18.7171 41.0476 18.0266C41.0475 17.6759 41.1168 17.3287 41.2517 17.0051C41.3865 16.6814 41.5841 16.3876 41.8332 16.1408C42.0822 15.894 42.3777 15.6989 42.7025 15.5669C43.0274 15.435 43.3752 15.3687 43.7258 15.3719C44.1332 15.3802 44.5349 15.4678 44.9088 15.6298V17.1995C44.7748 17.0237 44.6013 16.882 44.4023 16.7858C44.2033 16.6896 43.9845 16.6416 43.7635 16.6457C43.4289 16.634 43.103 16.7537 42.8556 16.9793C42.7148 17.113 42.6031 17.2743 42.5275 17.453C42.4518 17.6318 42.4137 17.8243 42.4158 18.0184C42.4159 18.3882 42.5629 18.7428 42.8243 19.0043C43.0845 19.2319 43.4192 19.3561 43.7649 19.3534C43.9831 19.3545 44.1988 19.3074 44.3968 19.2156C44.5947 19.1238 44.77 18.9895 44.9101 18.8223L44.9074 20.3779Z" fill="white"/>
<path d="M50.1086 19.8773C49.5569 20.3613 48.848 20.6281 48.114 20.6281C47.3801 20.6281 46.6712 20.3613 46.1194 19.8773C45.8673 19.6308 45.667 19.3365 45.5302 19.0115C45.3934 18.6866 45.3229 18.3376 45.3229 17.985C45.3229 17.6325 45.3934 17.2835 45.5302 16.9585C45.667 16.6336 45.8673 16.3392 46.1194 16.0928C46.6712 15.6089 47.3801 15.3421 48.114 15.3421C48.8479 15.3421 49.5568 15.6089 50.1086 16.0928C50.3607 16.3393 50.561 16.6336 50.6977 16.9586C50.8344 17.2835 50.9049 17.6325 50.9049 17.985C50.9049 18.3376 50.8344 18.6866 50.6977 19.0115C50.561 19.3364 50.3607 19.6308 50.1086 19.8773ZM47.0899 17.0175C46.9603 17.1481 46.858 17.3033 46.789 17.4739C46.7199 17.6445 46.6855 17.8271 46.6877 18.0111C46.6868 18.1871 46.7221 18.3613 46.7913 18.5231C46.8604 18.6849 46.9621 18.8308 47.0899 18.9517C47.2257 19.0827 47.386 19.1857 47.5617 19.2547C47.7373 19.3238 47.9249 19.3574 48.1136 19.3539C48.2975 19.3608 48.4811 19.3307 48.6532 19.2653C48.8253 19.2 48.9825 19.1007 49.1155 18.9733C49.2485 18.846 49.3546 18.6933 49.4274 18.5241C49.5002 18.355 49.5383 18.173 49.5394 17.9889C49.539 17.808 49.5027 17.6291 49.4325 17.4624C49.3624 17.2957 49.2599 17.1446 49.1308 17.0179C48.8539 16.7622 48.4915 16.6189 48.1145 16.6162C47.7339 16.6113 47.3665 16.7555 47.0908 17.0179" fill="white"/>
<path d="M51.2239 20.5141L52.081 15.4555H53.3756L54.3992 18.1555L55.4837 15.4555H56.7955L57.5541 20.5141H56.2422L55.8704 17.6017L54.6493 20.5141H54.126L52.958 17.6017L52.5258 20.5141H51.2239Z" fill="white"/>
<path d="M59.5133 18.8377V20.5137H58.2009V15.4559H60.294C60.5271 15.4418 60.7607 15.4747 60.9809 15.5527C61.201 15.6307 61.4032 15.7522 61.5755 15.9099C61.7382 16.0684 61.8646 16.2604 61.9458 16.4725C62.027 16.6847 62.0611 16.912 62.0458 17.1387C62.0634 17.3681 62.0327 17.5987 61.9556 17.8156C61.8785 18.0324 61.7568 18.2306 61.5982 18.3974C61.4294 18.5526 61.2306 18.6716 61.0142 18.7473C60.7977 18.8229 60.5681 18.8535 60.3394 18.8373L59.5133 18.8377ZM59.5133 17.776H59.9531C60.1506 17.7884 60.3463 17.7321 60.5069 17.6167C60.5669 17.5565 60.6129 17.4839 60.6417 17.4039C60.6705 17.324 60.6814 17.2387 60.6735 17.1541C60.68 17.0721 60.6698 16.9897 60.6438 16.9117C60.6177 16.8338 60.5763 16.7618 60.5219 16.7002C60.3663 16.5677 60.1645 16.5025 59.9608 16.5186H59.5133V17.776Z" fill="white"/>
<path d="M67.1122 19.8773C66.5604 20.3613 65.8515 20.6281 65.1175 20.6281C64.3836 20.6281 63.6747 20.3613 63.123 19.8773C62.8708 19.6308 62.6705 19.3365 62.5337 19.0115C62.397 18.6866 62.3265 18.3376 62.3265 17.985C62.3265 17.6325 62.397 17.2835 62.5337 16.9585C62.6705 16.6336 62.8708 16.3392 63.123 16.0928C63.6747 15.6089 64.3836 15.3421 65.1175 15.3421C65.8515 15.3421 66.5604 15.6089 67.1122 16.0928C67.3642 16.3393 67.5645 16.6336 67.7012 16.9586C67.838 17.2835 67.9084 17.6325 67.9084 17.985C67.9084 18.3376 67.838 18.6866 67.7012 19.0115C67.5645 19.3364 67.3642 19.6308 67.1122 19.8773ZM64.0935 17.0175C63.9638 17.1481 63.8615 17.3032 63.7924 17.4738C63.7234 17.6445 63.689 17.8271 63.6913 18.0111C63.6904 18.1871 63.7256 18.3613 63.7948 18.5231C63.864 18.6849 63.9656 18.8308 64.0935 18.9517C64.2293 19.0827 64.3896 19.1857 64.5652 19.2547C64.7409 19.3238 64.9284 19.3574 65.1171 19.3539C65.3011 19.3608 65.4846 19.3307 65.6567 19.2653C65.8289 19.2 65.9861 19.1007 66.1191 18.9733C66.2521 18.846 66.3581 18.6933 66.4309 18.5241C66.5038 18.355 66.5418 18.173 66.5429 17.9889C66.5425 17.808 66.5062 17.6291 66.4361 17.4624C66.3659 17.2957 66.2634 17.1446 66.1344 17.0179C65.8575 16.7622 65.4953 16.619 65.1185 16.6162C64.7379 16.6112 64.3704 16.7554 64.0948 17.0179" fill="white"/>
<path d="M68.552 20.5141V15.4564H69.8643L72.2834 18.5509V15.4564H73.5952V20.515H72.2834L69.8643 17.4206V20.515L68.552 20.5141Z" fill="white"/>
<path d="M77.342 16.5703H75.7796V17.4124H77.2571V18.5273H75.7782V19.3993H77.3407V20.5141H74.4664V15.4564H77.3407L77.342 16.5703Z" fill="white"/>
<path d="M77.9857 20.5141V15.4564H79.2981L81.7171 18.5509V15.4564H83.0294V20.515H81.7171L79.2981 17.4206V20.515L77.9857 20.5141Z" fill="white"/>
<path d="M85.8125 16.5703V20.5141H84.5006V16.5703H83.4234V15.4564H86.8892V16.5712L85.8125 16.5703Z" fill="white"/>
<path d="M87.6169 18.9975C87.9266 19.307 88.3399 19.4907 88.7771 19.5132C88.8693 19.521 88.962 19.5096 89.0495 19.4796C89.137 19.4495 89.2172 19.4016 89.2851 19.3389C89.368 19.2539 89.4142 19.1398 89.414 19.0211C89.4137 18.9631 89.4006 18.9058 89.3757 18.8534C89.3507 18.801 89.3145 18.7547 89.2696 18.7179C89.0716 18.5878 88.85 18.4976 88.6173 18.4523L88.276 18.3461C88.003 18.2743 87.7529 18.1336 87.5497 17.9376C87.3427 17.687 87.2396 17.3667 87.2615 17.0424C87.2516 16.8182 87.2875 16.5942 87.3671 16.3843C87.4466 16.1744 87.568 15.9828 87.724 15.8213C87.8975 15.6594 88.1016 15.5338 88.3243 15.4518C88.547 15.3698 88.7838 15.3331 89.0209 15.3438C89.5662 15.3583 90.1008 15.498 90.5834 15.7523L90.0599 16.7764C89.8225 16.5631 89.5166 16.442 89.1975 16.4351C89.0395 16.4296 88.8853 16.4837 88.7653 16.5867C88.7262 16.6207 88.6944 16.6624 88.6722 16.7093C88.6501 16.7562 88.6379 16.8072 88.6364 16.859C88.6311 16.9405 88.6555 17.0211 88.7049 17.086C88.8251 17.2046 88.9785 17.2838 89.1448 17.313L89.5465 17.4342C89.8925 17.5132 90.2101 17.686 90.4644 17.9335C90.5782 18.0532 90.6658 18.1952 90.7219 18.3506C90.778 18.5059 90.8013 18.6711 90.7903 18.8359C90.802 19.0697 90.7656 19.3033 90.6835 19.5225C90.6014 19.7416 90.4752 19.9416 90.3128 20.1101C90.1132 20.295 89.8773 20.4363 89.6201 20.5251C89.3629 20.6139 89.0901 20.6482 88.8189 20.6258C88.4802 20.6329 88.143 20.5762 87.8252 20.4587C87.5545 20.3566 87.2973 20.2217 87.0594 20.057L87.6169 18.9975Z" fill="white"/>
<path d="M42.5869 23.7975H41.2746V28.8561H42.5869V23.7975Z" fill="white"/>
<path d="M43.4585 28.8561V23.7988H44.7708L47.1903 26.8933V23.7988H48.5026V28.8575H47.1898L44.7703 25.7634V28.8575L43.4585 28.8561Z" fill="white"/>
<path d="M53.0065 28.7195C52.6464 28.8734 52.2605 28.9583 51.869 28.9696C51.1422 28.9851 50.4389 28.7124 49.9125 28.2111C49.4272 27.7198 49.1525 27.0586 49.1467 26.3681C49.1467 26.0175 49.2161 25.6704 49.351 25.3468C49.4859 25.0232 49.6836 24.7295 49.9326 24.4827C50.1816 24.236 50.4771 24.041 50.8019 23.909C51.1267 23.777 51.4744 23.7107 51.825 23.7139C52.2323 23.7222 52.6341 23.8098 53.0079 23.9718V25.5415C52.8739 25.3657 52.7004 25.224 52.5014 25.1278C52.3024 25.0315 52.0836 24.9835 51.8626 24.9877C51.528 24.976 51.2022 25.0957 50.9548 25.3213C50.814 25.455 50.7023 25.6162 50.6266 25.795C50.5509 25.9738 50.5129 26.1662 50.5149 26.3604C50.5151 26.7302 50.662 27.0847 50.9234 27.3463C51.1837 27.5738 51.5183 27.698 51.864 27.6954C52.0822 27.6965 52.2979 27.6494 52.4959 27.5576C52.6938 27.4658 52.8691 27.3315 53.0092 27.1643L53.0065 28.7195Z" fill="white"/>
<path d="M53.7188 28.7649C53.6102 28.6546 53.5365 28.5147 53.5068 28.3628C53.4771 28.2109 53.4927 28.0537 53.5518 27.9106C53.6108 27.7675 53.7106 27.6449 53.8388 27.5582C53.9669 27.4714 54.1178 27.4242 54.2726 27.4226C54.3775 27.4241 54.481 27.4464 54.5773 27.488C54.6736 27.5297 54.7607 27.59 54.8336 27.6654C54.9761 27.8135 55.055 28.0115 55.0536 28.217C55.0521 28.4224 54.9704 28.6192 54.8259 28.7653C54.7539 28.8394 54.6678 28.8983 54.5727 28.9387C54.4776 28.9791 54.3754 29.0001 54.2721 29.0005C54.1687 29.0005 54.0664 28.9797 53.9713 28.9393C53.8761 28.8989 53.7901 28.8397 53.7183 28.7653" fill="white"/>
<path d="M0 7.73039V29.2792H5.77996V12.4186C6.60068 12.4186 7.35376 12.3633 8.09504 12.4318C8.62596 12.442 9.14251 12.6061 9.58192 12.9043C10.0213 13.2024 10.3647 13.6218 10.5703 14.1114C11.2513 15.707 10.2667 17.7833 8.08823 17.5663C7.67242 17.525 7.2598 17.4478 6.81993 17.3847V22.935C8.09853 23.106 9.39692 23.0578 10.6593 22.7924C12.6394 22.3421 14.2363 21.3439 15.1451 19.4628C15.9858 17.6796 16.2094 15.6675 15.7806 13.7432C15.018 9.90293 12.4002 7.8289 8.65792 7.73039C5.88346 7.65549 3.10492 7.70815 0.327742 7.70588C0.225606 7.70588 0.123017 7.72086 0 7.73039Z" fill="white"/>
<path d="M30.3324 7.96507C30.2589 7.93093 30.1831 7.9021 30.1055 7.87882C28.5529 7.50855 26.9436 7.44089 25.3655 7.67954C24.1303 7.8803 22.9476 8.32559 21.8868 8.98931C20.8259 9.65303 19.9082 10.5218 19.1874 11.5448C18.2339 12.8187 17.5567 14.2776 17.199 15.8281C16.8414 17.3786 16.8111 18.9867 17.1102 20.5495C17.4531 22.767 18.5193 24.809 20.1429 26.3576C21.1274 27.3256 22.3101 28.0685 23.6094 28.5351C24.9088 29.0017 26.2939 29.1809 27.6692 29.0604C28.5707 29.0032 29.4663 28.8566 30.3828 28.7485V23.5033C29.4164 23.5487 28.46 23.6299 27.504 23.6245C26.7218 23.6517 25.9439 23.4975 25.2313 23.1739C24.5186 22.8503 23.8906 22.3661 23.3963 21.7593C22.1934 20.2713 21.9637 18.5295 22.3568 16.7142C22.6727 15.3853 23.4708 14.221 24.5963 13.4471C25.7218 12.6731 27.0947 12.3446 28.4486 12.5253C29.0787 12.6161 29.7019 12.7582 30.3329 12.8776L30.3324 7.96507Z" fill="white"/>
<path d="M37.4238 14.5921H31.662V28.8484H37.4238V14.5921Z" fill="white"/>
<path d="M37.4511 7.6169H31.6221V12.8481H37.4511V7.6169Z" fill="white"/>
</svg>
