<svg width="184" height="36" viewBox="0 0 184 36" fill="none" xmlns="http://www.w3.org/2000/svg">
<path d="M9.91817 14.9116L3.51636 15.9905V20.982C3.51363 21.0554 3.52693 21.1286 3.55535 21.1964C4.9852 24.1991 8.38434 26.3309 10.0482 27.2278C11.6535 26.3179 14.9226 24.1926 16.2875 21.2094C16.313 21.1432 16.324 21.0723 16.32 21.0015V15.9905L9.91817 14.9116ZM11.0296 22.5093V22.5223C11.0315 22.5437 11.0292 22.5652 11.0227 22.5857C11.0162 22.6062 11.0057 22.6251 10.9917 22.6415C10.9778 22.6578 10.9608 22.6712 10.9416 22.6809C10.9224 22.6906 10.9015 22.6963 10.8801 22.6978H9.00177C8.95786 22.6916 8.91817 22.6684 8.89137 22.6331C8.86458 22.5977 8.85286 22.5532 8.85879 22.5093L9.31374 20.0916C9.14009 19.9548 8.9963 19.7838 8.89123 19.5893C8.78616 19.3948 8.72204 19.1809 8.7028 18.9607C8.7153 18.65 8.83999 18.3545 9.05377 18.1288C9.16359 17.9988 9.30044 17.8943 9.45479 17.8226C9.60913 17.751 9.77725 17.7139 9.94742 17.7139C10.1176 17.7139 10.2857 17.751 10.4401 17.8226C10.5944 17.8943 10.7313 17.9988 10.8411 18.1288C11.0549 18.3545 11.1795 18.65 11.192 18.9607C11.173 19.1816 11.1082 19.3962 11.002 19.5909C10.8957 19.7856 10.7502 19.956 10.5746 20.0916L11.0296 22.5093Z" fill="white"/>
<path d="M19.2382 8.15038L10.2204 5.04826C10.0361 4.98391 9.83537 4.98391 9.65104 5.04826L0.629349 8.15038C0.447904 8.21468 0.291002 8.33391 0.180462 8.49151C0.0699214 8.64911 0.0112357 8.83724 0.0125648 9.02973V11.491C0.0125648 11.5579 0.039133 11.622 0.0864246 11.6693C0.133716 11.7166 0.197858 11.7432 0.264738 11.7432C0.278016 11.7431 0.291269 11.742 0.304384 11.7399L2.0189 11.452C2.07779 11.4422 2.13127 11.4118 2.16983 11.3662C2.20839 11.3206 2.22953 11.2628 2.22948 11.2031V10.1249C2.22948 10.0723 2.24588 10.0211 2.27641 9.97833C2.30694 9.93557 2.35007 9.90341 2.39976 9.88634L9.85252 7.32497C9.90582 7.30679 9.96365 7.30679 10.017 7.32497L17.4671 9.88634C17.5168 9.90341 17.5599 9.93557 17.5905 9.97833C17.621 10.0211 17.6374 10.0723 17.6374 10.1249V11.2038C17.6373 11.2635 17.6585 11.3212 17.697 11.3668C17.7356 11.4124 17.7891 11.4428 17.848 11.4527L19.5625 11.7406C19.6285 11.7515 19.6961 11.7358 19.7506 11.697C19.805 11.6581 19.8419 11.5992 19.853 11.5333C19.8551 11.5195 19.8562 11.5056 19.8563 11.4917V9.02973C19.8584 8.83648 19.7999 8.64743 19.689 8.48912C19.5782 8.33082 19.4205 8.21122 19.2382 8.14713V8.15038Z" fill="white"/>
<path d="M19.8446 13.5227V13.4935C19.8445 13.3511 19.794 13.2134 19.702 13.1047C19.6101 12.9961 19.4826 12.9236 19.3422 12.9001L10.0222 11.3344C9.95611 11.3233 9.88868 11.3233 9.82263 11.3344L0.505869 12.9001C0.363944 12.9232 0.234964 12.9963 0.142231 13.1062C0.0494988 13.2161 -0.00087093 13.3555 0.000222435 13.4993V20.9618C-0.00602499 21.5541 0.119401 22.1404 0.367433 22.6783C2.93401 28.0805 9.6309 30.9532 9.6309 30.9532C9.72528 30.9824 9.8233 30.9981 9.92207 31H10.2327C10.3281 30.9981 10.4227 30.9824 10.5135 30.9532C10.5135 30.9532 17.0187 28.0727 19.4982 22.6562C19.7323 22.1312 19.8508 21.562 19.8459 20.9872L19.8446 13.5227ZM17.4704 21.7534C15.7467 25.5159 11.4592 27.9791 10.0612 28.7018C8.6404 27.9928 4.18708 25.5458 2.36987 21.7216C2.26676 21.4879 2.21554 21.2347 2.21974 20.9794V14.8889L9.82393 13.6124C9.88998 13.6013 9.95741 13.6013 10.0235 13.6124L17.6276 14.8902V20.9885C17.6301 21.2523 17.5765 21.5137 17.4704 21.7554" fill="white"/>
<path d="M29.6473 24.8415V11.1376H35.1289C35.9588 11.0995 36.7819 11.3029 37.4985 11.7233C38.07 12.0782 38.5288 12.5883 38.8213 13.194C39.0927 13.7517 39.2358 14.363 39.24 14.9832C39.2657 15.6587 39.0846 16.326 38.721 16.896C38.3852 17.3962 37.8796 17.7579 37.2978 17.9143V17.4384C38.0721 17.5645 38.7648 17.9923 39.2245 18.628C39.6491 19.2308 39.8742 19.9515 39.8681 20.6888C39.884 21.4348 39.7293 22.1746 39.4157 22.8516C39.1191 23.4691 38.639 23.9797 38.041 24.3137C37.3263 24.6895 36.5257 24.8715 35.7189 24.8415H29.6473ZM32.2739 22.4052H35.4524C35.7772 22.4111 36.0981 22.3343 36.3851 22.182C36.6535 22.0367 36.8758 21.8191 37.027 21.5539C37.1887 21.2615 37.2693 20.9311 37.2606 20.5971C37.2659 20.2967 37.1973 19.9995 37.0607 19.7319C36.924 19.474 36.713 19.2631 36.4551 19.1263C36.1451 18.9676 35.7997 18.8905 35.4516 18.9023H32.2739V22.4052ZM32.2739 16.4859H35.0908C35.3582 16.4903 35.6234 16.4384 35.8694 16.3336C36.0938 16.235 36.2829 16.0706 36.4119 15.8621C36.5545 15.6121 36.6238 15.327 36.6117 15.0394C36.6228 14.6501 36.483 14.2717 36.2216 13.9831C36.0746 13.8346 35.8973 13.7195 35.7019 13.6456C35.5065 13.5717 35.2975 13.5408 35.0891 13.5548H32.2739V16.4859ZM41.7714 24.8415V11.1376H50.717V13.5548H44.36V16.4859H49.575V18.9031H44.36V22.4242H50.717V24.8415H41.7714ZM53.001 24.8415V11.1376H55.323L59.8529 20.2354L64.3828 11.1376H66.7049V24.8415H64.2876V16.6572L60.3097 24.8415H59.3961L55.4165 16.6572V24.8415H53.001ZM75.2507 25.127C74.0089 25.1617 72.7816 24.8534 71.7036 24.2359C70.7113 23.6402 69.9141 22.7684 69.4093 21.7269C68.8519 20.5605 68.5763 19.2794 68.6047 17.9869C68.5763 16.6945 68.8519 15.4134 69.4093 14.2469C69.915 13.2079 70.7118 12.3383 71.7028 11.7441C72.7929 11.1569 74.0117 10.8495 75.2499 10.8495C76.488 10.8495 77.7068 11.1569 78.7969 11.7441C79.7883 12.3401 80.5846 13.2119 81.0887 14.253C81.6461 15.4194 81.9217 16.7005 81.8933 17.993C81.9207 19.2834 81.6451 20.5623 81.0887 21.7269C80.5841 22.768 79.7875 23.6397 78.7961 24.2359C77.7181 24.8534 76.4908 25.1617 75.249 25.127M75.249 22.6907C76.0128 22.7311 76.7704 22.535 77.4188 22.1292C78.0086 21.7261 78.4613 21.1527 78.7165 20.4855C79.0203 19.6901 79.1672 18.8434 79.1491 17.9921C79.1681 17.147 79.0211 16.3064 78.7165 15.5178C78.4577 14.857 78.0054 14.2898 77.4188 13.8905C76.7697 13.4829 76.0153 13.2745 75.249 13.2909C74.4852 13.25 73.7273 13.4461 73.0792 13.8524C72.4895 14.2555 72.0367 14.829 71.7815 15.4962C71.4777 16.2916 71.3308 17.1383 71.3489 17.9895C71.3299 18.8347 71.4769 19.6753 71.7815 20.4638C72.0403 21.1246 72.4926 21.6918 73.0792 22.0912C73.7283 22.4988 74.4827 22.7072 75.249 22.6907Z" fill="white"/>
</svg>
