<svg width="36" height="36" viewBox="0 0 36 36" fill="none" xmlns="http://www.w3.org/2000/svg">
<path d="M18.0588 13.9336L9.62985 15.3541V21.9262C9.62626 22.0229 9.64378 22.1193 9.6812 22.2086C11.5638 26.1621 16.0393 28.9689 18.23 30.1498C20.3437 28.9518 24.648 26.1535 26.445 22.2257C26.4786 22.1385 26.4932 22.0451 26.4878 21.9519V15.3541L18.0588 13.9336ZM19.5221 23.9372V23.9543C19.5247 23.9824 19.5216 24.0108 19.5131 24.0378C19.5045 24.0647 19.4907 24.0897 19.4724 24.1112C19.454 24.1327 19.4316 24.1504 19.4063 24.1631C19.3811 24.1758 19.3535 24.1834 19.3253 24.1853H16.8523C16.7944 24.1773 16.7422 24.1466 16.7069 24.1001C16.6716 24.0536 16.6562 23.995 16.664 23.9372L17.263 20.7538C17.0344 20.5737 16.8451 20.3487 16.7067 20.0926C16.5684 19.8365 16.4839 19.5548 16.4586 19.2649C16.4751 18.8559 16.6392 18.4667 16.9207 18.1695C17.0653 17.9984 17.2455 17.8608 17.4487 17.7665C17.6519 17.6721 17.8733 17.6232 18.0973 17.6232C18.3214 17.6232 18.5428 17.6721 18.746 17.7665C18.9492 17.8608 19.1294 17.9984 19.274 18.1695C19.5555 18.4667 19.7196 18.8559 19.7361 19.2649C19.711 19.5558 19.6258 19.8383 19.4858 20.0946C19.3459 20.3509 19.1543 20.5754 18.9231 20.7538L19.5221 23.9372Z" fill="#F54B4A"/>
<path d="M30.3299 5.03144L18.4566 0.947022C18.2139 0.862304 17.9496 0.862304 17.7069 0.947022L5.82848 5.03144C5.58958 5.1161 5.38299 5.2731 5.23745 5.4806C5.09191 5.6881 5.01464 5.9358 5.01639 6.18925V9.42992C5.01639 9.51798 5.05137 9.60243 5.11363 9.6647C5.1759 9.72696 5.26035 9.76194 5.34841 9.76194C5.36589 9.76183 5.38334 9.7604 5.40061 9.75767L7.65804 9.37857C7.73557 9.36561 7.80599 9.32555 7.85676 9.26554C7.90753 9.20552 7.93536 9.12944 7.9353 9.05083V7.63117C7.93529 7.56198 7.9569 7.49453 7.99709 7.43823C8.03729 7.38192 8.09407 7.33958 8.1595 7.31711L17.9722 3.94466C18.0424 3.92073 18.1185 3.92073 18.1887 3.94466L27.998 7.31711C28.0634 7.33958 28.1202 7.38192 28.1604 7.43823C28.2006 7.49453 28.2222 7.56198 28.2222 7.63117V9.05168C28.2221 9.13029 28.25 9.20638 28.3007 9.26639C28.3515 9.32641 28.4219 9.36646 28.4995 9.37943L30.7569 9.75852C30.8438 9.77288 30.9328 9.75222 31.0045 9.70105C31.0762 9.64989 31.1247 9.57239 31.1394 9.48554C31.1421 9.46741 31.1436 9.44911 31.1437 9.43077V6.18925C31.1464 5.93481 31.0694 5.68589 30.9235 5.47745C30.7775 5.26902 30.5699 5.11155 30.3299 5.02716V5.03144Z" fill="#002857"/>
<path d="M31.1284 12.105V12.0664C31.1284 11.879 31.0619 11.6977 30.9408 11.5547C30.8197 11.4116 30.6518 11.3161 30.467 11.2852L18.1957 9.2237C18.1088 9.20915 18.02 9.20915 17.933 9.2237L5.66605 11.2852C5.47919 11.3156 5.30937 11.4118 5.18727 11.5565C5.06517 11.7012 4.99885 11.8848 5.00029 12.0742V21.8997C4.99207 22.6795 5.15721 23.4515 5.48378 24.1597C8.86308 31.2726 17.6806 35.0549 17.6806 35.0549C17.8048 35.0933 17.9339 35.1141 18.0639 35.1165H18.473C18.5985 35.1141 18.7231 35.0933 18.8427 35.0549C18.8427 35.0549 27.4077 31.2623 30.6723 24.1306C30.9806 23.4393 31.1367 22.6899 31.1301 21.9331L31.1284 12.105ZM28.0024 22.942C25.733 27.8958 20.0877 31.1391 18.2471 32.0906C16.3764 31.157 10.5129 27.9352 8.1203 22.9C7.98454 22.5924 7.9171 22.259 7.92263 21.9228V13.9037L17.9347 12.223C18.0217 12.2085 18.1105 12.2085 18.1974 12.223L28.2095 13.9054V21.9348C28.2127 22.2822 28.1421 22.6264 28.0024 22.9445" fill="#002857"/>
</svg>
