<svg width="184" height="36" viewBox="0 0 184 36" fill="none" xmlns="http://www.w3.org/2000/svg">
<path d="M13.1158 5.10246L15.4658 15.7295L26.2303 18.0513L15.4658 20.373L13.1158 31L10.7645 20.373L0 18.0513L10.7645 15.7295L13.1158 5.10246Z" fill="white"/>
<path d="M41.7261 5.13704V26.7189H44.7404V15.8261H48.7142V14.2503H44.7404V6.71415H48.7142V5.13828H41.7265L41.7261 5.13704ZM36.4337 5H32.9058C32.2289 5 31.5798 5.2689 31.1011 5.74754C30.6225 6.22618 30.3536 6.87537 30.3536 7.55227V26.6497H33.1622V15.7579H36.1769V26.651H38.9859V7.5535C38.9859 7.21827 38.9199 6.88632 38.7917 6.57659C38.6634 6.26687 38.4754 5.98541 38.2383 5.74836C38.0013 5.51132 37.7198 5.3233 37.4101 5.19504C37.1004 5.06678 36.7685 5.00082 36.4332 5.00087L36.4337 5ZM36.1773 14.1803H33.163V6.50758H36.1782L36.1773 14.1803ZM79.389 5H75.8613C75.1845 5.00011 74.5354 5.26907 74.0568 5.74769C73.5783 6.22632 73.3095 6.87544 73.3095 7.55227V26.6497H76.1181V6.508H79.1323V26.6497H81.9413V7.55227C81.9413 7.21707 81.8753 6.88514 81.747 6.57546C81.6187 6.26578 81.4306 5.98439 81.1936 5.74739C80.9566 5.51038 80.6752 5.3224 80.3655 5.19417C80.0558 5.06593 79.7242 4.99994 79.389 5ZM90.7611 5H87.2338C86.5569 5 85.9076 5.26891 85.4289 5.74754C84.9502 6.22616 84.6812 6.87533 84.6811 7.55227V26.6497H87.4905V15.7579H90.5048V26.651H93.3138V7.5535C93.314 7.21825 93.2482 6.88624 93.1201 6.57644C92.9919 6.26665 92.8039 5.98514 92.5669 5.748C92.33 5.51087 92.0486 5.32277 91.7389 5.19442C91.4292 5.06608 91.0972 5 90.762 5H90.7611ZM90.5044 14.1803H87.4901V6.50758H90.5044V14.1803ZM68.0158 5H64.4879C63.8111 5 63.1619 5.2689 62.6833 5.74754C62.2046 6.22618 61.9357 6.87537 61.9357 7.55227V14.2486V24.0966C61.9357 24.7735 62.2046 25.4227 62.6833 25.9014C63.1619 26.38 63.8111 26.6489 64.4879 26.6489H68.0153C68.6922 26.6489 69.3414 26.38 69.82 25.9014C70.2987 25.4227 70.5676 24.7735 70.5676 24.0966V17.402V7.55391C70.5676 7.21871 70.5016 6.88681 70.3734 6.57711C70.2451 6.26741 70.0571 5.98597 69.8201 5.74893C69.5831 5.51189 69.3018 5.3239 68.9921 5.19561C68.6824 5.06732 68.3505 5.00129 68.0153 5.00129L68.0158 5ZM67.7594 14.2486V25.1422H64.7447V17.402V6.50841H67.759L67.7594 14.2486ZM57.1226 5H53.5953C53.2601 5 52.9282 5.06601 52.6185 5.19427C52.3089 5.32253 52.0275 5.51054 51.7905 5.74754C51.5535 5.98454 51.3655 6.26591 51.2373 6.57557C51.109 6.88522 51.043 7.2171 51.043 7.55227V24.1654C51.043 24.5005 51.109 24.8324 51.2373 25.1421C51.3655 25.4517 51.5535 25.7331 51.7905 25.9701C52.0275 26.2071 52.3089 26.3951 52.6185 26.5233C52.9282 26.6516 53.2601 26.7176 53.5953 26.7176H57.123C57.7998 26.7176 58.4489 26.4488 58.9276 25.9702C59.4062 25.4917 59.6751 24.8426 59.6752 24.1658V19.5246H56.8667V25.2109H53.8524V6.50758H56.8667V10.9607H59.676V7.55268C59.6761 7.21744 59.6102 6.88545 59.4819 6.57572C59.3536 6.26599 59.1656 5.98459 58.9286 5.74754C58.6915 5.51049 58.4101 5.32248 58.1004 5.19422C57.7906 5.06595 57.4586 4.99994 57.1234 5H57.1226Z" fill="white"/>
<path d="M93.2801 28.0873H30.4561V30.8963H93.2801V28.0873Z" fill="white"/>
</svg>
