<svg width="184" height="36" viewBox="0 0 184 36" fill="none" xmlns="http://www.w3.org/2000/svg">
<path fill-rule="evenodd" clip-rule="evenodd" d="M39.5024 12.4086C39.5024 8.95473 39.0834 8.36718 36.7441 8.36718V7.6419L41.9815 6.77774V23.0483C41.9815 26.5028 42.4348 27.0907 44.7397 27.0907V27.8145L40.0965 28.68C39.9206 28.3337 39.6419 27.1245 39.5369 26.5715C38.5604 27.7814 37.1638 28.68 35.2427 28.68C31.926 28.68 29.1667 25.8116 29.1667 22.3231C29.1667 18.8345 31.926 16.0013 35.2428 16.0013C36.9876 16.0013 38.454 16.7606 39.5024 18.0396V12.4086ZM39.5024 20.1124C38.874 18.4886 37.5471 17.3824 35.9759 17.3824C33.2524 17.3824 31.996 19.5599 31.996 22.3231C31.996 25.0863 33.2528 27.2964 35.9759 27.2964C37.5471 27.2964 38.874 26.1916 39.5024 24.5684V20.1124Z" fill="white"/>
<path d="M52.4205 27.2277C53.5735 27.2277 55.2487 26.5716 56.2621 25.6405L56.8903 26.4C55.668 27.6769 53.5377 28.6804 51.5487 28.6804C47.7078 28.6804 45.0886 25.8122 45.0886 22.3236C45.0886 18.6622 48.3 16.0018 51.5487 16.0018C54.6556 16.0018 57.1348 18.4885 56.2966 21.4593H47.8814C47.4629 24.7059 48.8245 27.2281 52.4205 27.2281M53.887 20.1813C54.2714 19.0772 53.6771 17.3829 51.3725 17.3829C49.872 17.3829 48.5795 18.4887 48.0911 20.1813H53.887Z" fill="white"/>
<path d="M68.4831 19.3171L64.5372 28.7127H63.8377L59.5782 19.3171C58.9148 17.8317 58.3552 17.2801 57.1686 17.2801V16.5892H63.3842V17.2799C61.7778 17.2799 61.568 17.659 62.2676 19.3168L64.7455 24.8438L67.0867 19.3168C67.7145 17.8314 67.6087 17.2799 66.0739 17.2799V16.5892H70.9613V17.2799C69.7402 17.2799 69.1112 17.7975 68.4834 19.3168" fill="white"/>
<path d="M72.2883 28.0917V27.366C74.5924 27.366 75.0461 26.7783 75.0461 23.3241V21.5978C75.0461 18.1427 74.5924 17.5902 72.2883 17.5902V16.8657L77.5257 16.0015V23.3246C77.5257 26.7788 77.9446 27.3665 80.2836 27.3665V28.0919L72.2883 28.0917ZM76.2679 12.6161C75.9606 12.6195 75.6593 12.5326 75.4019 12.3665C75.1446 12.2004 74.9428 11.9625 74.8221 11.683C74.7014 11.4034 74.6672 11.0947 74.7239 10.796C74.7805 10.4972 74.9255 10.2218 75.1404 10.0045C75.3553 9.7872 75.6305 9.63785 75.9312 9.57532C76.2319 9.51279 76.5446 9.53988 76.8297 9.65317C77.1148 9.76646 77.3596 9.96086 77.5331 10.2118C77.7065 10.4627 77.8009 10.7589 77.8042 11.0628C77.8076 11.4701 77.6479 11.8621 77.36 12.1532C77.0721 12.4443 76.6795 12.6107 76.2679 12.6161Z" fill="white"/>
<path d="M91.631 16.0014C94.7735 16.0014 96.1701 18.2118 96.1701 21.1489V23.3241C96.1701 26.7783 96.59 27.366 98.9296 27.366V28.0912H90.9325V27.366C93.2034 27.366 93.6922 26.7783 93.6922 23.3241V21.3211C93.6922 19.0767 92.8875 17.6255 90.7928 17.6255C88.8737 17.6255 86.778 19.1788 86.778 21.0795V23.3241C86.778 26.8825 87.0573 27.366 89.2223 27.366V28.0912H81.5404V27.366C83.8449 27.366 84.2985 26.7783 84.2985 23.3241V21.5978C84.2985 18.1427 83.8449 17.59 81.5404 17.59V16.8658L86.1842 16.0016C86.3589 16.3466 86.6728 17.7634 86.7774 18.4888C87.7196 17.3134 89.3255 16.0016 91.6305 16.0016" fill="white"/>
<path d="M106.192 27.2277C107.343 27.2277 109.02 26.5716 110.032 25.6405L110.66 26.4C109.438 27.6769 107.309 28.6804 105.319 28.6804C101.477 28.6804 98.8583 25.8122 98.8583 22.3236C98.8583 18.6622 102.071 16.0018 105.319 16.0018C108.425 16.0018 110.906 18.4885 110.068 21.4593H101.651C101.233 24.7059 102.596 27.2281 106.192 27.2281M107.657 20.1813C108.042 19.0772 107.448 17.3829 105.144 17.3829C103.642 17.3829 102.35 18.4887 101.86 20.1813H107.657Z" fill="white"/>
<path d="M1.34323 18.6212L4.12968 20.1777C4.52645 19.5863 5.03477 19.0762 5.6268 18.6752L4.00097 15.9493C2.92771 16.6363 2.02035 17.5485 1.34323 18.6212Z" fill="white"/>
<path d="M4.71949 15.5334L6.34631 18.2593C6.98314 17.9492 7.67408 17.7625 8.38185 17.7092L8.35131 14.5438C7.08227 14.6078 5.84272 14.9456 4.71949 15.5334Z" fill="white"/>
<path d="M17.6403 22.7505C17.5695 21.5189 17.2324 20.3167 16.6518 19.225L13.895 20.8341C14.1961 21.4443 14.3809 22.1042 14.44 22.7806L17.6403 22.7505Z" fill="white"/>
<path d="M9.32412 28.8243L9.3549 31.9897C10.619 31.9177 11.8522 31.5741 12.9685 30.9828L11.3414 28.2571C10.7113 28.5706 10.0267 28.763 9.32412 28.8243Z" fill="white"/>
<path d="M12.0582 27.8352L13.6841 30.5611C14.7376 29.8793 15.629 28.9795 16.2968 27.9238L13.5108 26.3675C13.1233 26.9419 12.6308 27.4397 12.0586 27.8352" fill="white"/>
<path d="M16.7073 27.2053C17.2791 26.0758 17.6002 24.8384 17.6491 23.576L14.4495 23.6065C14.4039 24.314 14.2248 25.0068 13.9215 25.649L16.7073 27.2053Z" fill="white"/>
<path d="M0.935231 19.3411C0.372371 20.4547 0.0536677 21.6734 0 22.9173L3.19989 22.8861C3.25022 22.1972 3.42686 21.5232 3.72119 20.8969L0.935231 19.3411Z" fill="white"/>
<path d="M0.00447083 23.7416C0.0765734 25.0148 0.428113 26.2571 1.03465 27.3823L3.78921 25.7738C3.45978 25.1306 3.26088 24.4297 3.20374 23.7109L0.00447083 23.7416Z" fill="white"/>
<path d="M4.13551 30.6731L5.70821 27.9166C5.12498 27.5352 4.6193 27.0489 4.21743 26.4829L1.46088 28.0922C2.15351 29.1335 3.06599 30.014 4.13551 30.6731Z" fill="white"/>
<path d="M6.43554 28.3209L4.8637 31.077C6.00189 31.6387 7.24826 31.9534 8.51936 32L8.48932 28.8353C7.77846 28.7911 7.08207 28.6166 6.43554 28.3209Z" fill="white"/>
<path d="M7.57455 4V10.3058L13.4092 20.0785L16.1934 18.4525L7.57455 4Z" fill="white"/>
</svg>
