<svg width="184" height="36" viewBox="0 0 184 36" fill="none" xmlns="http://www.w3.org/2000/svg">
<path d="M133.11 24.3703H133.433C133.586 24.3703 133.691 24.3465 133.746 24.301C133.802 24.2554 133.832 24.1926 133.832 24.1168C133.832 24.0669 133.817 24.0236 133.791 23.9846C133.763 23.9455 133.727 23.9152 133.68 23.8979C133.631 23.8784 133.544 23.8675 133.413 23.8675H133.112V24.3725L133.11 24.3703ZM132.846 25.3065V23.64H133.409C133.601 23.64 133.742 23.6552 133.83 23.6855C133.915 23.7158 133.983 23.77 134.035 23.8459C134.086 23.9239 134.111 24.0041 134.111 24.0907C134.111 24.2143 134.069 24.3183 133.983 24.4093C133.898 24.4982 133.785 24.5502 133.644 24.561C133.702 24.5849 133.749 24.6152 133.783 24.6499C133.849 24.7149 133.93 24.8254 134.026 24.9793L134.227 25.3043H133.902L133.757 25.0421C133.642 24.8362 133.55 24.7062 133.48 24.6542C133.43 24.6152 133.36 24.5979 133.266 24.5979H133.11V25.3043H132.846V25.3065ZM133.516 23.1567C133.3 23.1567 133.093 23.2131 132.89 23.3236C132.688 23.4363 132.528 23.5945 132.414 23.8025C132.299 24.0106 132.244 24.2251 132.244 24.4505C132.244 24.6759 132.299 24.8883 132.412 25.092C132.525 25.2957 132.683 25.456 132.884 25.5709C133.087 25.6836 133.298 25.7421 133.518 25.7421C133.738 25.7421 133.949 25.6836 134.152 25.5709C134.355 25.456 134.511 25.2957 134.622 25.092C134.735 24.8883 134.788 24.6737 134.788 24.4505C134.788 24.2273 134.733 24.0084 134.619 23.8025C134.504 23.5945 134.346 23.4363 134.141 23.3236C133.939 23.2131 133.729 23.1567 133.516 23.1567ZM133.516 22.8988C133.772 22.8988 134.022 22.966 134.267 23.0982C134.511 23.2326 134.701 23.4233 134.837 23.6725C134.972 23.9217 135.042 24.1796 135.042 24.4505C135.042 24.7214 134.976 24.9728 134.841 25.2198C134.707 25.4669 134.519 25.6576 134.276 25.7941C134.035 25.9306 133.781 26 133.516 26C133.251 26 132.997 25.9306 132.756 25.7941C132.515 25.6576 132.325 25.4669 132.19 25.2198C132.056 24.9728 131.987 24.717 131.987 24.4505C131.987 24.1839 132.056 23.9217 132.192 23.6725C132.329 23.4233 132.519 23.2326 132.764 23.0982C133.008 22.9638 133.258 22.8988 133.516 22.8988Z" fill="white"/>
<path d="M16.3599 11.2309C14.4601 11.2309 12.5603 11.2331 10.6604 11.2353C9.59311 12.9061 8.53219 14.5813 7.47554 16.2609C7.21938 16.2652 7.0913 16.2674 6.83514 16.2717C7.12332 14.5943 7.4115 12.917 7.69968 11.2396C5.98128 11.2396 4.26076 11.2418 2.54237 11.2439H0.732184L2.2734 12.8086C1.5092 17.2057 0.751396 21.6029 0 26C1.71839 25.9198 3.43678 25.8418 5.15518 25.7681C5.46683 23.9997 5.78063 22.2313 6.09229 20.463C6.37833 20.4543 6.52135 20.4521 6.80739 20.4435C7.32398 22.1728 7.84056 23.9022 8.36142 25.6316C10.1609 25.5579 11.9626 25.4886 13.7642 25.4214C12.9637 23.109 12.1675 20.7967 11.3734 18.4822C13.0235 16.055 14.6842 13.6386 16.3599 11.2309Z" fill="white"/>
<path d="M27.7846 15.1448C28.0322 13.838 28.2798 12.5312 28.5274 11.2244C24.8751 11.2244 21.2227 11.2288 17.5703 11.2309C16.7164 15.9445 15.8668 20.6602 15.0237 25.3759C18.676 25.2437 22.3263 25.1266 25.9787 25.0205C26.2178 23.705 26.4568 22.3874 26.6959 21.0719C24.6979 21.1131 22.6977 21.1564 20.6997 21.202C20.7979 20.697 20.8491 20.4456 20.9473 19.9407C22.6913 19.906 24.4353 19.8713 26.1793 19.841C26.3779 18.6924 26.5742 17.5417 26.7728 16.3931C25.0373 16.4126 23.3018 16.4321 21.5664 16.4538C21.6645 15.951 21.7158 15.6996 21.814 15.199C23.8035 15.1795 25.7951 15.1621 27.7846 15.147" fill="white"/>
<path d="M39.3074 14.5618C39.1281 15.5587 38.9595 16.5578 38.8378 17.5655C38.7972 17.5655 38.778 17.5655 38.7396 17.5655C38.3874 16.7528 37.9754 15.9683 37.557 15.1903C36.8334 13.8683 36.1097 12.5464 35.3861 11.2223C33.7915 11.2223 32.1948 11.2223 30.598 11.2244C29.7442 15.8036 28.8946 20.3828 28.0493 24.9641C29.7357 24.9186 31.422 24.8752 33.1084 24.8362C33.3069 23.7613 33.5033 22.6864 33.7018 21.6137C33.8939 20.5453 34.0818 19.4747 34.2227 18.3977C34.2611 18.3977 34.2825 18.3977 34.3209 18.3977C34.8204 19.4119 35.3818 20.3914 35.9475 21.3688C36.6114 22.4914 37.2774 23.6118 37.9455 24.7322C39.4419 24.7019 40.9404 24.6759 42.4368 24.6499C43.2843 20.1726 44.1339 15.6974 44.9834 11.2223C43.2971 11.2223 41.6107 11.2223 39.9243 11.2223C39.7173 12.3362 39.5123 13.4501 39.3053 14.564" fill="white"/>
<path d="M46.5396 11.2179C46.2834 12.5507 46.0294 13.8835 45.7733 15.2163C46.9836 15.2098 50.8238 15.2033 50.8238 15.2033L49.0606 17.0042C48.5803 19.5267 48.1022 22.0493 47.624 24.5697C49.3445 24.548 51.0629 24.5285 52.7834 24.5112C53.3833 21.4035 53.9853 18.2936 54.5872 15.186C55.7976 15.1838 57.0058 15.1795 58.2161 15.1773C58.4702 13.8575 58.7263 12.5377 58.9825 11.2179C54.837 11.2179 50.6915 11.2179 46.546 11.2179" fill="white"/>
<path d="M73.5621 14.3863C74.2046 14.3863 74.7212 14.7937 74.7469 15.3788C76.2923 15.1643 77.84 14.9498 79.3854 14.7352C79.236 11.7792 76.3372 10.9427 73.8823 10.9449C71.0432 10.947 67.6982 12.2387 67.6641 15.5934C67.6406 17.9946 69.6109 19.349 71.7114 19.867C72.5503 20.0707 72.9708 20.2289 72.9708 20.658C72.9708 21.0849 72.5994 21.2648 72.0572 21.2626C71.3293 21.2583 70.5587 20.7859 70.5267 19.9775C69.0132 20.3416 67.4976 20.7078 65.9841 21.0741C66.2702 23.9434 69.4508 24.7192 71.8096 24.7236C74.7127 24.7279 78.38 23.64 78.3501 20.075C78.3309 17.8212 76.5335 16.4451 74.5227 15.9185C74.0125 15.7819 72.7958 15.5565 72.7211 14.9931C72.6826 14.7027 72.9666 14.3863 73.56 14.3863" fill="white"/>
<path d="M93.3759 11.2201C89.2304 11.2201 85.085 11.2179 80.9395 11.2158C80.6854 12.5399 80.4293 13.864 80.1753 15.1881C81.3856 15.1925 85.1831 15.2033 85.1831 15.2033L83.469 16.9522C82.9887 19.4769 82.5084 22.0038 82.0281 24.5285C83.7487 24.548 85.4671 24.5697 87.1854 24.5935C87.7853 21.4707 88.3851 18.3457 88.9828 15.2228C90.191 15.2293 91.4014 15.2358 92.6096 15.2423C92.8636 13.9008 93.1176 12.5594 93.3717 11.2179" fill="white"/>
<path d="M98.0935 19.4271L99.8439 15.199C99.8845 15.199 99.9037 15.199 99.9421 15.199L100.365 19.4596C99.607 19.4487 98.8513 19.4379 98.0935 19.4271ZM97.4723 11.2223C94.9598 15.7061 92.426 20.1769 89.8772 24.6369C91.6469 24.6672 93.4144 24.6997 95.184 24.7344C95.5213 24.1297 95.8585 23.5229 96.1958 22.9162C97.7584 22.9443 100.886 23.0115 100.886 23.0137H102.354L101.091 24.3031C101.118 24.4722 101.146 24.6542 101.18 24.8666C102.884 24.9078 104.585 24.9533 106.288 25.0009C105.556 20.4066 104.822 15.8144 104.085 11.2223C101.88 11.2223 99.6774 11.2223 97.4723 11.2201" fill="white"/>
<path d="M120.249 11.2353C116.104 11.2331 111.958 11.2288 107.813 11.2266C107.559 12.6006 107.305 13.9745 107.05 15.3485C108.261 15.3593 111.096 15.4049 111.096 15.4049H112.048L110.359 17.1277C109.877 19.7781 109.392 22.4286 108.908 25.0768C110.626 25.1288 112.344 25.183 114.065 25.2393C114.667 21.9713 115.265 18.7032 115.862 15.433C117.071 15.446 118.281 15.459 119.489 15.4742C119.743 14.0591 119.999 12.6461 120.253 11.2309" fill="white"/>
<path d="M132.143 15.4439C132.273 14.7005 132.406 13.9572 132.536 13.2139L134.474 11.2461H132.457C128.946 11.2439 125.436 11.2396 121.927 11.2374C121.086 15.9705 120.24 20.7035 119.391 25.4344C123.043 25.5709 126.694 25.7226 130.344 25.8873C130.583 24.5025 130.82 23.1177 131.059 21.7351C129.061 21.6701 127.063 21.6072 125.065 21.5465C125.163 21.0308 125.212 20.7729 125.31 20.2549C127.054 20.3004 128.796 20.3481 130.54 20.3979C130.739 19.1822 130.935 17.9664 131.131 16.7528C129.396 16.7225 127.661 16.6921 125.925 16.664C126.023 16.146 126.072 15.886 126.171 15.3658C128.16 15.3919 130.152 15.4179 132.141 15.446" fill="white"/>
<path d="M63.5634 17.4701C63.5634 17.4701 64.1739 16.2067 64.9488 14.2909C65.7237 12.3774 66.5263 9.99783 66.5263 9.99783L60.9101 13.2876C60.9101 13.2876 60.8631 13.5693 60.5856 14.4773C60.3081 15.3853 60.1523 15.8751 60.1523 15.8751L61.448 15.381C61.448 15.381 61.2132 16.3476 60.6881 17.7605C60.1629 19.1735 59.4222 20.9852 59.4222 20.9852L60.9314 20.3329C60.9314 20.3329 60.9463 20.4001 60.3444 22.0688C59.8427 23.4623 59.2258 24.9273 59.2258 24.9273C59.2258 24.9273 60.4575 23.7397 61.4459 22.7428C62.4342 21.7437 63.2411 20.8725 63.2411 20.8725L62.1311 21.2301C62.1311 21.2301 62.7074 20.4001 63.4332 19.336C64.1611 18.272 64.8741 17.1017 64.8741 17.1017L63.5613 17.4723L63.5634 17.4701Z" fill="white"/>
</svg>
