<svg width="184" height="36" viewBox="0 0 184 36" fill="none" xmlns="http://www.w3.org/2000/svg">
<path d="M35.1632 17.2756V7.64313H39.174C40.1 7.64313 40.8031 7.84935 41.2833 8.26179C41.7634 8.67424 42.0023 9.27531 41.9999 10.065C42.0093 10.4792 41.8999 10.8875 41.6846 11.2412C41.4698 11.5796 41.1586 11.8456 40.7912 12.0047C41.289 12.1796 41.7241 12.4981 42.0417 12.9201C42.3603 13.3616 42.5245 13.8962 42.5087 14.4409C42.5087 15.3575 42.2272 16.0591 41.6643 16.5457C41.1013 17.0322 40.3158 17.2755 39.3077 17.2753L35.1632 17.2756ZM36.6526 11.6338H39.0975C39.4716 11.6469 39.8369 11.5188 40.1211 11.2749C40.2526 11.1608 40.3571 11.0188 40.4271 10.8593C40.4972 10.6998 40.5309 10.5267 40.526 10.3525C40.5366 10.173 40.5048 9.99359 40.4332 9.82873C40.3616 9.66387 40.2522 9.51824 40.1139 9.40365C39.8352 9.18346 39.4379 9.07336 38.9219 9.07336H36.6526V11.6338ZM36.6526 15.8446H39.2349C39.7923 15.8446 40.2275 15.7206 40.5405 15.4725C40.8535 15.2244 41.0091 14.8715 41.0075 14.4137C41.016 14.2182 40.9744 14.0238 40.8866 13.8491C40.7987 13.6744 40.6677 13.5252 40.5059 13.4157C40.1666 13.1811 39.7184 13.0643 39.161 13.0651H36.6526V15.8446Z" fill="white"/>
<path d="M46.9483 17.2756L50.6712 7.64313H52.1795L55.8821 17.2756H54.2974L53.3908 14.8821H49.3657L48.4592 17.2756H46.9483ZM50.6437 11.5236L49.9103 13.4501H52.8501L52.1001 11.4659C52.0726 11.4013 52.0177 11.241 51.9352 10.9873C51.8528 10.7336 51.7609 10.4464 51.6605 10.1342C51.5602 9.82194 51.4635 9.55144 51.3858 9.31209C51.3118 9.55144 51.2293 9.81224 51.1386 10.0971C51.0478 10.3819 50.957 10.6523 50.8711 10.9084C50.7851 11.1644 50.707 11.3669 50.6437 11.5236Z" fill="white"/>
<path d="M61.0003 17.2756V7.64313H62.4514L65.5965 12.7753L68.7973 7.64313H70.1705V17.2756H68.6921V13.3269C68.6921 12.7126 68.7037 12.1486 68.7268 11.6349C68.7494 11.1203 68.7829 10.6214 68.8294 10.1343L66.0131 14.5103H65.1066L62.3464 10.1504C62.3918 10.6082 62.426 11.092 62.4491 11.6018C62.4718 12.1103 62.4838 12.6873 62.4838 13.3285V17.2768L61.0003 17.2756Z" fill="white"/>
<path d="M76.3064 17.2756V7.64313H80.3172C81.2417 7.64313 81.9444 7.84935 82.4254 8.26179C82.9063 8.67424 83.1452 9.27531 83.142 10.065C83.1517 10.4794 83.0418 10.8878 82.8255 11.2412C82.6114 11.5798 82.3005 11.8458 81.9332 12.0047C82.4309 12.1793 82.8657 12.4979 83.1826 12.9201C83.5018 13.3613 83.666 13.8962 83.6496 14.4409C83.6496 15.3575 83.3681 16.0591 82.8051 16.5457C82.2422 17.0322 81.457 17.2755 80.4498 17.2753L76.3064 17.2756ZM77.7851 11.6338H80.23C80.604 11.6466 80.9692 11.5185 81.2534 11.2748C81.3849 11.1607 81.4895 11.0188 81.5596 10.8593C81.6296 10.6998 81.6634 10.5267 81.6585 10.3525C81.6691 10.173 81.6373 9.99359 81.5657 9.82873C81.4941 9.66387 81.3847 9.51824 81.2464 9.40365C80.9717 9.18346 80.5779 9.07336 80.0652 9.07336H77.7851V11.6338ZM77.7851 15.8446H80.3674C80.9252 15.8446 81.3612 15.7249 81.6717 15.4725C81.9822 15.2201 82.1387 14.8742 82.1387 14.4137C82.1472 14.2183 82.1057 14.0241 82.0181 13.8494C81.9305 13.6747 81.7997 13.5254 81.6382 13.4157C81.3038 13.1811 80.8571 13.0643 80.2981 13.0651H77.7896L77.7851 15.8446Z" fill="white"/>
<path d="M93.1139 17.4132C92.47 17.4199 91.8316 17.2932 91.2388 17.0411C90.675 16.7997 90.1659 16.4464 89.7421 16.0025C89.3115 15.5507 88.9753 15.0174 88.7532 14.4338C88.5137 13.8035 88.3946 13.1338 88.402 12.4594C88.3947 11.7848 88.5138 11.1148 88.7532 10.4841C88.9753 9.90049 89.3115 9.36717 89.7421 8.91544C90.1656 8.47225 90.6737 8.11902 91.2364 7.8768C92.4378 7.38225 93.7854 7.38225 94.9868 7.8768C95.5545 8.11863 96.0667 8.47458 96.4917 8.92265C96.9214 9.37767 97.2574 9.913 97.4807 10.4981C97.719 11.1241 97.8377 11.7893 97.8306 12.4593C97.8376 13.1288 97.7189 13.7937 97.4807 14.4193C97.2578 15.0047 96.9217 15.5402 96.4917 15.9952C96.0695 16.4426 95.5602 16.7986 94.9952 17.041C94.4005 17.2937 93.76 17.4204 93.114 17.4131L93.1139 17.4132ZM93.1139 15.9678C93.6952 15.9766 94.267 15.8191 94.7622 15.514C95.2493 15.2088 95.6435 14.7754 95.9016 14.2612C96.1825 13.7027 96.3239 13.0843 96.3137 12.4591C96.3239 11.8335 96.1825 11.2147 95.9016 10.6559C95.6431 10.1421 95.249 9.70923 94.7622 9.4042C94.2623 9.10653 93.6916 8.94943 93.1102 8.94943C92.5287 8.94943 91.958 9.10653 91.4582 9.4042C90.9756 9.7094 90.5841 10.1393 90.3248 10.6486C90.0423 11.2095 89.9008 11.831 89.9127 12.4591C89.9009 13.0868 90.0424 13.7078 90.3248 14.2683C90.5837 14.7782 90.9753 15.2086 91.4582 15.514C91.9552 15.8211 92.5298 15.9787 93.1137 15.9678H93.1139Z" fill="white"/>
<path d="M107.289 17.4132C106.645 17.4198 106.007 17.2932 105.414 17.0411C104.85 16.7997 104.341 16.4464 103.917 16.0024C103.487 15.5504 103.15 15.0172 102.927 14.4338C102.691 13.8028 102.574 13.1332 102.583 12.4593C102.576 11.7848 102.695 11.1149 102.933 10.484C103.156 9.90056 103.493 9.36733 103.923 8.91533C104.345 8.47254 104.852 8.11933 105.414 7.87668C106.615 7.38209 107.962 7.38209 109.163 7.87668C109.728 8.11918 110.238 8.47511 110.661 8.92253C111.09 9.3777 111.426 9.91318 111.65 10.4984C111.888 11.1244 112.007 11.7897 111.999 12.4596C112.006 13.1291 111.888 13.794 111.65 14.4196C111.427 15.005 111.091 15.5405 110.661 15.9955C110.238 16.4433 109.728 16.7993 109.163 17.0413C108.57 17.2933 107.932 17.42 107.289 17.4135L107.289 17.4132ZM107.289 15.9677C107.87 15.9765 108.442 15.8191 108.937 15.5139C109.424 15.2088 109.819 14.7754 110.077 14.2611C110.358 13.7027 110.499 13.0843 110.489 12.4591C110.499 11.8334 110.358 11.2147 110.077 10.6558C109.818 10.1421 109.424 9.70922 108.937 9.40417C108.437 9.10651 107.867 8.9494 107.285 8.9494C106.704 8.9494 106.133 9.10651 105.633 9.40417C105.15 9.70901 104.759 10.139 104.5 10.6486C104.217 11.2095 104.076 11.831 104.088 12.4591C104.076 13.0867 104.218 13.7078 104.5 14.2683C104.758 14.7785 105.15 15.209 105.633 15.5139C106.13 15.821 106.705 15.9784 107.289 15.9673V15.9677Z" fill="white"/>
<path d="M37.011 28.4945C36.5879 28.5082 36.1684 28.4121 35.7934 28.2154C35.4183 28.0188 35.1004 27.7283 34.8705 27.3721L35.3387 26.8552C35.5447 27.176 35.8208 27.4457 36.1462 27.6437C36.4299 27.7965 36.7478 27.8744 37.0698 27.8699C37.3058 27.8737 37.5402 27.8311 37.7599 27.7445C37.9465 27.6718 38.1111 27.5518 38.2376 27.3963C38.3541 27.25 38.4162 27.0675 38.4132 26.8803C38.4189 26.7357 38.385 26.5923 38.3151 26.4657C38.2452 26.3392 38.1419 26.2342 38.0166 26.1623C37.6706 25.9689 37.2966 25.8304 36.9082 25.7519C36.3398 25.6179 35.9066 25.4236 35.6087 25.1691C35.3107 24.9147 35.1614 24.5505 35.1608 24.0767C35.1563 23.7827 35.2458 23.4951 35.4164 23.2558C35.5929 23.0093 35.8304 22.813 36.1056 22.6864C36.6032 22.4333 37.178 22.3781 37.7145 22.5319C38.2511 22.6857 38.7097 23.0371 38.9984 23.5156L38.5301 23.9847C38.3709 23.7239 38.1569 23.501 37.9031 23.3313C37.6542 23.1703 37.3632 23.087 37.067 23.0919C36.7481 23.0779 36.4341 23.1738 36.1772 23.3636C36.0676 23.4439 35.9789 23.5494 35.9184 23.6712C35.8579 23.793 35.8275 23.9276 35.8296 24.0636C35.8245 24.1903 35.8509 24.3163 35.9063 24.4304C35.9618 24.5444 36.0446 24.6428 36.1473 24.7169C36.3583 24.8725 36.7067 25.0037 37.1924 25.1106C37.6879 25.208 38.1577 25.4077 38.572 25.697C38.7368 25.8175 38.8696 25.9768 38.9585 26.1608C39.0475 26.3449 39.0899 26.548 39.082 26.7523C39.0877 27.073 38.9974 27.3881 38.8228 27.657C38.6436 27.9243 38.3933 28.1361 38.1002 28.2684C37.7583 28.4235 37.3863 28.5008 37.011 28.4945Z" fill="white"/>
<path d="M47.4022 28.4945C47.0092 28.4984 46.6195 28.4227 46.2564 28.2721C45.9124 28.1284 45.602 27.9145 45.3451 27.6439C45.0851 27.3673 44.8822 27.042 44.7479 26.6866C44.4646 25.9141 44.4646 25.0657 44.7479 24.2931C44.8822 23.9378 45.0851 23.6125 45.3451 23.3359C45.6025 23.065 45.9127 22.8499 46.2564 22.7042C46.9904 22.4027 47.8133 22.4027 48.5473 22.7042C48.8918 22.8505 49.203 23.0654 49.4621 23.3359C49.7231 23.6117 49.9262 23.9372 50.0593 24.2931C50.3439 25.0655 50.3439 25.9143 50.0593 26.6866C49.9262 27.0426 49.7231 27.3681 49.4621 27.6439C49.2035 27.914 48.892 28.1279 48.5473 28.2721C48.1842 28.4227 47.7945 28.4984 47.4015 28.4945H47.4022ZM47.4022 27.8411C47.7956 27.8503 48.1837 27.748 48.5218 27.5461C48.8598 27.3442 49.1342 27.0508 49.3132 26.6996C49.5002 26.3222 49.5975 25.9065 49.5975 25.4851C49.5975 25.0637 49.5002 24.648 49.3132 24.2705C49.1333 23.9268 48.8648 23.6375 48.5356 23.4329C48.1929 23.2331 47.8034 23.1279 47.4069 23.1279C47.0104 23.1279 46.6209 23.2331 46.2782 23.4329C45.9496 23.6367 45.6825 23.9263 45.5055 24.2705C45.3208 24.6487 45.2248 25.0641 45.2248 25.4851C45.2248 25.9061 45.3208 26.3215 45.5055 26.6996C45.6828 27.0488 45.9549 27.3407 46.2904 27.5418C46.626 27.7429 47.0113 27.845 47.4023 27.8364L47.4022 27.8411Z" fill="white"/>
<path d="M56.151 28.4059V22.5422H59.8381V23.1871H56.8116V25.1444H59.4452V25.7894H56.8116V28.4028L56.151 28.4059Z" fill="white"/>
<path d="M66.9113 28.4059V23.1876H65.2308V22.5427H69.3025V23.1876H67.5718V28.4059H66.9113Z" fill="white"/>
<path d="M76.2169 28.4059L74.4444 22.5422H75.1611L76.2897 26.4039C76.3511 26.6097 76.4024 26.7995 76.4438 26.9733C76.4856 27.1457 76.5237 27.3168 76.5573 27.4831C76.6075 27.3107 76.6516 27.1636 76.6911 27.044C76.7305 26.9244 76.7675 26.8142 76.8033 26.7137C76.8391 26.6131 76.8833 26.4983 76.9335 26.3702L77.9201 23.8741H78.5388L79.5424 26.4037C79.622 26.5927 79.6901 26.7698 79.7467 26.935C79.8052 27.1001 79.8661 27.2772 79.9187 27.4674C79.9462 27.3334 79.9689 27.2281 79.9856 27.136C80.0023 27.0439 80.0262 26.9517 80.056 26.8428C80.0859 26.7339 80.1325 26.5736 80.1946 26.3642L81.3232 22.5423H82.0338L80.2529 28.406H79.7095L78.2045 24.829L76.758 28.406L76.2169 28.4059Z" fill="white"/>
<path d="M86.7097 28.4059L88.9587 22.5422H89.7027L91.9267 28.4059H91.21L90.6128 26.7893H87.9975L87.3871 28.4059H86.7097ZM88.8082 24.6534L88.2398 26.1443H90.3634L89.7861 24.6115C89.7193 24.432 89.6392 24.2107 89.5472 23.945C89.4552 23.6793 89.3729 23.4352 89.3012 23.2127C89.2223 23.452 89.1423 23.6913 89.0623 23.9414C88.9823 24.1915 88.8919 24.4261 88.8082 24.6534Z" fill="white"/>
<path d="M97.5953 28.406V22.5423H99.8944C100.218 22.5383 100.537 22.6209 100.818 22.7817C101.096 22.9397 101.326 23.1698 101.484 23.4478C101.642 23.7258 101.723 24.0414 101.717 24.3614C101.724 24.7291 101.608 25.0886 101.388 25.3833C101.179 25.668 100.887 25.8811 100.552 25.9935L101.957 28.4058H101.163L99.8489 26.094H98.2606V28.4058L97.5953 28.406ZM98.2558 25.4492H100.003C100.142 25.4532 100.28 25.428 100.408 25.3752C100.536 25.3224 100.652 25.2433 100.747 25.1429C100.845 25.0382 100.922 24.9151 100.972 24.7807C101.022 24.6463 101.045 24.5033 101.04 24.3599C101.044 24.2036 101.015 24.0482 100.955 23.9039C100.896 23.7595 100.806 23.6295 100.692 23.5222C100.574 23.4118 100.436 23.3258 100.285 23.2691C100.133 23.2124 99.9723 23.1862 99.811 23.1919H98.2578L98.2558 25.4492Z" fill="white"/>
<path d="M107.719 28.4059V22.5422H111.264V23.1871H108.381V25.0643H110.797V25.7092H108.381V27.7613H111.247V28.4063L107.719 28.4059Z" fill="white"/>
<path fill-rule="evenodd" clip-rule="evenodd" d="M27.9488 4V32H0V4H27.9488ZM2.03095 29.9653V6.03377H25.9178V29.9653H20.7399V28.9056C20.7389 28.2388 20.8101 27.5738 20.9522 26.9223H19.2807C19.4232 27.5737 19.4944 28.2387 19.4929 28.9056V29.9662H18.0159C17.9786 29.5872 17.9618 29.2046 17.9618 28.8202V25.5894C17.9601 24.7597 18.0434 23.932 18.2104 23.1194H16.2521C16.4186 23.9321 16.502 24.7597 16.5008 25.5894V28.8202C16.5008 29.2046 16.4839 29.5872 16.4466 29.9662H14.5717V26.3964C14.5691 25.5664 14.6506 24.7382 14.815 23.9246H12.8575C13.0237 24.7374 13.107 25.565 13.1062 26.3946V29.9653H11.6008V28.9038C11.5999 28.2373 11.671 27.5726 11.8131 26.9214H10.1416C10.2836 27.5726 10.3548 28.2373 10.3538 28.9038V29.9653H8.69566C8.61742 29.4808 8.57762 28.9907 8.57664 28.4999V25.9088C8.5769 25.2421 8.64927 24.5774 8.79247 23.9264H7.12007C7.26239 24.5775 7.33386 25.2422 7.33323 25.9088V28.5008C7.33151 28.9913 7.29142 29.481 7.21333 29.9653H2.03095ZM7.14938 23.5465L8.82177 23.4993L8.82799 23.4984C8.66185 22.9343 8.56551 22.3519 8.54112 21.7642L8.4452 19.489C8.41984 18.9036 8.46638 18.3173 8.58375 17.7433L6.91224 17.7913C7.07695 18.3557 7.17269 18.938 7.19734 19.5255L7.28793 21.8007C7.31369 22.3861 7.26716 22.9725 7.14938 23.5465ZM11.6044 14.2536H9.84226C9.99156 14.8246 10.0668 15.4126 10.0661 16.0029V18.2905C10.0663 18.8827 9.9902 19.4725 9.8396 20.0452H11.6026C11.4534 19.4723 11.3788 18.8825 11.3805 18.2905V16.0029C11.3803 15.4126 11.4555 14.8247 11.6044 14.2536ZM10.2526 24.7227C10.28 25.3428 10.2301 25.9639 10.1043 26.5717L11.8975 26.5201L11.8966 26.5192C11.7189 25.923 11.6157 25.307 11.5893 24.6854L11.4862 22.2776C11.4587 21.6575 11.5089 21.0363 11.6354 20.4287L9.84138 20.4803C10.0191 21.0768 10.1223 21.693 10.1487 22.315L10.2526 24.7227ZM13.0689 21.6779C13.098 22.3311 13.0458 22.9854 12.9135 23.6256L14.7893 23.5731C14.6044 22.9435 14.4968 22.2936 14.4687 21.6379L14.3612 19.0975C14.333 18.4441 14.3852 17.7896 14.5166 17.1489L12.6408 17.2023C12.8265 17.8315 12.9342 18.4812 12.9615 19.1367L13.0689 21.6779ZM16.2681 22.7777H18.1509C17.9921 22.2588 17.9121 21.7188 17.9138 21.1761V19.0878C17.9134 18.546 17.9942 18.0074 18.1536 17.4897H16.2707C16.4297 18.0075 16.5105 18.5461 16.5105 19.0878V21.1761C16.51 21.7191 16.4283 22.2589 16.2681 22.7777ZM17.9138 15.3756V13.0639C17.9132 12.4664 17.9939 11.8716 18.1536 11.2959H16.2707C16.43 11.8717 16.5106 12.4665 16.5105 13.0639V15.3756C16.5102 15.975 16.4286 16.5715 16.2681 17.1489H18.1509C17.9917 16.5714 17.9119 15.9748 17.9138 15.3756ZM20.6014 11.3538C20.5953 10.7918 20.6612 10.2314 20.7976 9.68632L19.1252 9.67387C19.2712 10.2193 19.3476 10.7811 19.3526 11.3458L19.3668 13.5284C19.3729 14.0906 19.3069 14.6513 19.1705 15.1967L20.8429 15.2101L20.8492 15.2092C20.7025 14.6639 20.6258 14.102 20.6209 13.5373L20.6014 11.3538ZM20.9557 26.553V26.5486C20.8148 26.0434 20.7434 25.5213 20.7435 24.9968V22.9645C20.743 22.4391 20.8145 21.9161 20.9557 21.4101H19.2842C19.4259 21.916 19.4974 22.4391 19.4965 22.9645V24.9977C19.4979 25.5235 19.4264 26.0469 19.2842 26.553H20.9557ZM19.2833 21.0898L20.9557 21.0666L20.9611 21.0613C20.8073 20.5196 20.7234 19.9604 20.7115 19.3974L20.6626 17.2174C20.647 16.6546 20.7037 16.0921 20.8314 15.5438L19.159 15.5678C19.3126 16.1095 19.3968 16.6686 19.4095 17.2317L19.4583 19.4188C19.4718 19.981 19.413 20.5426 19.2833 21.0898Z" fill="white"/>
</svg>
