<svg width="36" height="36" viewBox="0 0 36 36" fill="none" xmlns="http://www.w3.org/2000/svg">
<path d="M30.9327 21.3831C31.0527 24.9743 29.7489 28.4713 27.2951 31.1396C26.114 32.4109 24.6644 33.4143 23.0472 34.0796C21.43 34.7449 19.6843 35.0562 17.9319 34.9917C16.1839 35.0479 14.4443 34.7328 12.8322 34.0679C11.2201 33.403 9.77364 32.4041 8.59207 31.1396C6.16659 28.4581 4.88369 24.9655 5.0083 21.3831V15.6187C4.90116 12.0398 6.17994 8.5539 8.58739 5.86221C9.76461 4.59217 11.2102 3.58931 12.8233 2.92361C14.4364 2.2579 16.1782 1.94537 17.9272 2.00781C19.6885 1.94849 21.4421 2.26185 23.0689 2.92655C24.6957 3.59125 26.1575 4.59169 27.3548 5.8599C29.8085 8.52816 31.1124 12.0252 30.9924 15.6164V21.3808L30.9327 21.3831ZM24.7062 15.5625C24.7982 13.3798 24.1653 11.2269 22.9026 9.42734C22.3437 8.6498 21.5963 8.02096 20.7277 7.59754C19.8591 7.17411 18.8966 6.96947 17.9272 7.00201C16.968 6.96864 16.0151 7.16715 15.1526 7.58009C14.29 7.99304 13.5443 8.60773 12.9811 9.36996C11.764 11.1865 11.1631 13.3337 11.2641 15.5051V21.3257C11.1735 23.5305 11.7944 25.7071 13.0384 27.5458C13.5848 28.3218 14.3213 28.9506 15.1803 29.3744C16.0393 29.7982 16.9931 30.0034 17.9541 29.9711C18.9245 30.01 19.8892 29.8081 20.7589 29.3841C21.6286 28.9602 22.3752 28.3279 22.9295 27.5458C24.1991 25.7187 24.8225 23.5336 24.7038 21.3257L24.7062 15.5625Z" fill="#406D9A"/>
</svg>
